<svg id="Layer_1" data-name="Layer 1" xmlns="http://www.w3.org/2000/svg" viewBox="0 0 778.47 157.69"><defs><style>.cls-1{fill:#ecb741;}.cls-1,.cls-3{fill-rule:evenodd;}.cls-2,.cls-4{fill:none;stroke-miterlimit:2.61;}.cls-2{stroke:#ecb741;stroke-width:12.63px;}.cls-3,.cls-5{fill:#cc2128;}.cls-4{stroke:#cc2128;stroke-width:8px;}</style></defs><title>е-сити</title><path class="cls-1" d="M775.06,225.1c14.36-3.39,25.85-21.6,25.93-33.12l-542.16.1c-5.2,16.67-14.72,27.35-24.12,32.85Z" transform="translate(-22.51 -69.31)"/><path class="cls-2" d="M201.66,75.7,91,75.63C8,74.86,8.07,220.48,91.35,220.69L197,220.43a50.33,50.33,0,0,0,36.77-30H115.74c-42.71-.19-43.28-82.83,3.55-82.62l63.8-.19c11.92,2.17,13.23,21.88-9.23,28.7L96.18,160.46l99.16.08C258.25,160.83,256.62,75.87,201.66,75.7Z" transform="translate(-22.51 -69.31)"/><path class="cls-3" d="M201.66,75.7,91,75.63C8,74.86,8.07,220.48,91.35,220.69L197,220.43a50.33,50.33,0,0,0,36.77-30H115.74c-42.71-.19-43.28-82.83,3.55-82.62l63.8-.19c11.92,2.17,13.23,21.88-9.23,28.7L96.18,160.46l99.16.08c62.91.3,61.27-84.67,6.32-84.83" transform="translate(-22.51 -69.31)"/><polygon class="cls-4" points="377.18 10.65 377.08 108.19 421.25 108.2 459.91 53.97 459.88 108.23 496.71 108.22 496.71 10.65 456.3 10.64 414.11 67.5 414.09 10.63 377.18 10.65"/><polygon class="cls-1" points="377.18 10.65 377.08 108.19 421.25 108.2 459.91 53.97 459.88 108.23 496.71 108.22 496.71 10.65 456.3 10.64 414.11 67.5 414.09 10.63 377.18 10.65"/><polygon class="cls-4" points="512.34 34.76 521.1 10.47 635 10.63 626.27 34.84 596.73 34.83 596.65 108.23 550.61 108.23 550.66 34.77 512.34 34.76"/><polygon class="cls-1" points="512.34 34.76 521.1 10.47 635 10.63 626.27 34.84 596.73 34.83 596.65 108.23 550.61 108.23 550.66 34.77 512.34 34.76"/><path class="cls-4" d="M375.38,104.07l8.69-24L300.25,80c-52.36,0-56,97.57-.61,97.62l70.42-.07,8.56-24-62.32,0c-26.72-.84-27.53-48.61,1.65-49.39Z" transform="translate(-22.51 -69.31)"/><path class="cls-1" d="M375.38,104.07l8.69-24L300.25,80c-52.35,0-56,97.57-.61,97.62l70.42-.07,8.56-24-62.32,0c-26.72-.84-27.53-48.61,1.65-49.39Z" transform="translate(-22.51 -69.31)"/><polygon class="cls-3" points="282.82 147.19 282.82 133.37 277.65 133.37 277.65 130.56 291.51 130.56 291.51 133.37 286.36 133.37 286.36 147.19 282.82 147.19"/><path class="cls-3" d="M318.61,208.17a6.09,6.09,0,0,0,1.37,4.3,4.92,4.92,0,0,0,7,0,6.19,6.19,0,0,0,1.34-4.37,6,6,0,0,0-1.32-4.25,5.07,5.07,0,0,0-7,0,6,6,0,0,0-1.34,4.3Zm-3.64.12a10.12,10.12,0,0,1,.8-4.27,7.47,7.47,0,0,1,1.64-2.28,6.89,6.89,0,0,1,2.24-1.51,10,10,0,0,1,3.78-.65,8.45,8.45,0,0,1,6.17,2.28,9.87,9.87,0,0,1,0,12.68,8.4,8.4,0,0,1-6.15,2.28,8.51,8.51,0,0,1-6.22-2.28,8.42,8.42,0,0,1-2.29-6.25Z" transform="translate(-22.51 -69.31)"/><path class="cls-3" d="M338.23,202.69v4.74h1.93a9.94,9.94,0,0,0,2.78-.26,2.44,2.44,0,0,0,1.1-.83,2.12,2.12,0,0,0,.39-1.3,2.09,2.09,0,0,0-.56-1.49,2.37,2.37,0,0,0-1.42-.74,17.91,17.91,0,0,0-2.51-.12Zm-3.54,13.82V199.88h5.66a20,20,0,0,1,4.2.26,4.52,4.52,0,0,1,2.51,1.63,5,5,0,0,1,1,3.23,5.22,5.22,0,0,1-.59,2.58,4.73,4.73,0,0,1-1.46,1.65,5.68,5.68,0,0,1-1.83.79,23.75,23.75,0,0,1-3.66.23h-2.29v6.27Z" transform="translate(-22.51 -69.31)"/><polygon class="cls-3" points="328.63 130.56 340.46 130.56 340.46 133.37 332.17 133.37 332.17 147.19 328.63 147.19 328.63 130.56"/><path class="cls-3" d="M367.38,208.17a6.09,6.09,0,0,0,1.37,4.3,4.92,4.92,0,0,0,7,0,6.19,6.19,0,0,0,1.34-4.37,6,6,0,0,0-1.32-4.25,5.07,5.07,0,0,0-7,0,6,6,0,0,0-1.34,4.3Zm-3.64.12a10.12,10.12,0,0,1,.8-4.27,7.47,7.47,0,0,1,1.64-2.28,6.9,6.9,0,0,1,2.24-1.51,10,10,0,0,1,3.78-.65,8.45,8.45,0,0,1,6.17,2.28,9.87,9.87,0,0,1,0,12.68,8.41,8.41,0,0,1-6.15,2.28,8.51,8.51,0,0,1-6.22-2.28,8.42,8.42,0,0,1-2.29-6.25Z" transform="translate(-22.51 -69.31)"/><path class="cls-3" d="M387,209.24v4.46h3.27a21.79,21.79,0,0,0,2.42-.09,2.29,2.29,0,0,0,1.29-.67,2.05,2.05,0,0,0,.49-1.42,2,2,0,0,0-.39-1.28,2.09,2.09,0,0,0-1.1-.77,12.23,12.23,0,0,0-3.12-.23Zm0-6.6v3.83h2.32q2.05,0,2.56-.07a2.29,2.29,0,0,0,1.41-.58,1.72,1.72,0,0,0,.51-1.3,1.8,1.8,0,0,0-.44-1.25,2.2,2.2,0,0,0-1.34-.58c-.34,0-1.34,0-3,0Zm-3.54-2.76h7a20.44,20.44,0,0,1,3.1.16,5.19,5.19,0,0,1,1.83.67,4.43,4.43,0,0,1,1.34,1.39,3.56,3.56,0,0,1,.54,2,3.74,3.74,0,0,1-.66,2.14,4,4,0,0,1-1.78,1.46,4.45,4.45,0,0,1,2.44,1.51,3.87,3.87,0,0,1,.85,2.51,4.51,4.51,0,0,1-.56,2.21A4.24,4.24,0,0,1,396,215.6a5.14,5.14,0,0,1-2.37.79c-.58.07-2,.09-4.25.12h-6Z" transform="translate(-22.51 -69.31)"/><path class="cls-3" d="M403.38,208.17a6.09,6.09,0,0,0,1.37,4.3,4.92,4.92,0,0,0,7,0,6.19,6.19,0,0,0,1.34-4.37,6,6,0,0,0-1.32-4.25,5.06,5.06,0,0,0-7,0,6,6,0,0,0-1.34,4.3Zm-3.64.12a10.12,10.12,0,0,1,.8-4.27,7.5,7.5,0,0,1,1.63-2.28,6.9,6.9,0,0,1,2.25-1.51,10,10,0,0,1,3.78-.65,8.46,8.46,0,0,1,6.17,2.28,8.58,8.58,0,0,1,2.32,6.36,8.49,8.49,0,0,1-2.29,6.32,8.4,8.4,0,0,1-6.15,2.28,8.51,8.51,0,0,1-6.22-2.28,8.42,8.42,0,0,1-2.29-6.25Z" transform="translate(-22.51 -69.31)"/><rect class="cls-5" x="396.53" y="139.57" width="6.59" height="3.18"/><path class="cls-3" d="M431.12,202.69v4.74H433a9.94,9.94,0,0,0,2.78-.26,2.44,2.44,0,0,0,1.1-.83,2.11,2.11,0,0,0,.39-1.3,2.09,2.09,0,0,0-.56-1.49,2.37,2.37,0,0,0-1.41-.74,17.94,17.94,0,0,0-2.51-.12Zm-3.54,13.82V199.88h5.66a20,20,0,0,1,4.2.26,4.51,4.51,0,0,1,2.51,1.63,5,5,0,0,1,1,3.23,5.22,5.22,0,0,1-.59,2.58,4.73,4.73,0,0,1-1.46,1.65,5.68,5.68,0,0,1-1.83.79,23.74,23.74,0,0,1-3.66.23h-2.29v6.27Z" transform="translate(-22.51 -69.31)"/><path class="cls-3" d="M451,209.91l-2.42-6.15-2.37,6.15Zm6.47,6.6h-3.81l-1.51-3.79h-7l-1.46,3.79h-3.73l6.78-16.63h3.74Z" transform="translate(-22.51 -69.31)"/><path class="cls-3" d="M461.82,204.4l-3.44-.77c.73-2.72,2.85-4.06,6.32-4.06a7.15,7.15,0,0,1,4.64,1.28,3.82,3.82,0,0,1,1.56,3,3.64,3.64,0,0,1-.71,2.16,6.29,6.29,0,0,1-2.15,1.67,5.94,5.94,0,0,1,2.61,1.6,4,4,0,0,1,.85,2.58,4.35,4.35,0,0,1-1.68,3.55,8.08,8.08,0,0,1-5.05,1.35,8.72,8.72,0,0,1-4.32-.88,5.38,5.38,0,0,1-2.39-3.25l3.22-1a3.3,3.3,0,0,0,1.34,2,4.15,4.15,0,0,0,2.05.44,3.6,3.6,0,0,0,2.44-.7,2,2,0,0,0,.76-1.58,2,2,0,0,0-.85-1.65,4.5,4.5,0,0,0-2.61-.63h-.8V207H464a3.8,3.8,0,0,0,2.46-.7,2.26,2.26,0,0,0,.85-1.83,2,2,0,0,0-.68-1.53,2.92,2.92,0,0,0-2-.63,2.69,2.69,0,0,0-2.83,2.09Z" transform="translate(-22.51 -69.31)"/><path class="cls-3" d="M478.18,209.24v4.46h3.27a21.79,21.79,0,0,0,2.42-.09,2.3,2.3,0,0,0,1.29-.67,2.05,2.05,0,0,0,.49-1.42,2,2,0,0,0-.39-1.28,2.09,2.09,0,0,0-1.1-.77,12.23,12.23,0,0,0-3.12-.23Zm0-6.6v3.83h2.32q2,0,2.56-.07a2.29,2.29,0,0,0,1.41-.58,1.72,1.72,0,0,0,.51-1.3,1.8,1.8,0,0,0-.44-1.25,2.2,2.2,0,0,0-1.34-.58c-.34,0-1.34,0-3,0Zm-3.54-2.76h7a20.43,20.43,0,0,1,3.1.16,5.2,5.2,0,0,1,1.83.67,4.43,4.43,0,0,1,1.34,1.39,3.57,3.57,0,0,1,.54,2,3.75,3.75,0,0,1-.66,2.14,4,4,0,0,1-1.78,1.46,4.45,4.45,0,0,1,2.44,1.51,3.87,3.87,0,0,1,.85,2.51,4.5,4.5,0,0,1-.56,2.21,4.24,4.24,0,0,1-1.51,1.72,5.13,5.13,0,0,1-2.37.79c-.59.07-2,.09-4.25.12h-6Z" transform="translate(-22.51 -69.31)"/><path class="cls-3" d="M492.91,199.88h12.23v16.63H501.6V202.69h-5.25v7.11a27.63,27.63,0,0,1-.22,4.25,3.09,3.09,0,0,1-1,1.88,4.17,4.17,0,0,1-2.61.67c-.42,0-1.15,0-2.25-.12v-2.6H491a2.67,2.67,0,0,0,1.49-.28c.27-.19.39-.65.39-1.39V199.88Z" transform="translate(-22.51 -69.31)"/><polygon class="cls-3" points="486.26 147.19 486.26 130.56 499.2 130.56 499.2 133.37 489.8 133.37 489.8 137.06 498.54 137.06 498.54 139.88 489.8 139.88 489.8 144.38 499.54 144.38 499.54 147.19 486.26 147.19"/><path class="cls-3" d="M525.1,199.88h3.54V207a2.42,2.42,0,0,0,1.59-.58,11,11,0,0,0,1.29-2.6q1.1-2.68,2.2-3.34a7.09,7.09,0,0,1,3.54-.67h.51v2.48l-.49,0a3.71,3.71,0,0,0-1.59.26,2.19,2.19,0,0,0-.83.79,16.89,16.89,0,0,0-.9,2.14,6.92,6.92,0,0,1-.71,1.46,3.64,3.64,0,0,1-1.32,1.09,3.61,3.61,0,0,1,2,1.28,15.86,15.86,0,0,1,1.68,2.72l2.37,4.55h-4.15l-2.1-4.27c0-.07-.1-.19-.2-.37a6,6,0,0,1-.44-.77,4.33,4.33,0,0,0-1.1-1.53,2.26,2.26,0,0,0-1.32-.32v7.27H525.1Z" transform="translate(-22.51 -69.31)"/><path class="cls-3" d="M549.21,209.91l-2.42-6.15-2.37,6.15Zm6.47,6.6h-3.81l-1.51-3.79h-7l-1.46,3.79h-3.73l6.78-16.63h3.73Z" transform="translate(-22.51 -69.31)"/><polygon class="cls-3" points="537.76 147.19 537.76 133.37 532.59 133.37 532.59 130.56 546.45 130.56 546.45 133.37 541.3 133.37 541.3 147.19 537.76 147.19"/><polygon class="cls-3" points="548.75 147.19 548.75 130.56 561.68 130.56 561.68 133.37 552.28 133.37 552.28 137.06 561.02 137.06 561.02 139.88 552.28 139.88 552.28 144.38 562.02 144.38 562.02 147.19 548.75 147.19"/><path class="cls-3" d="M588.81,199.88H601v16.63h-3.54V202.69h-5.25v7.11A27.68,27.68,0,0,1,592,214a3.09,3.09,0,0,1-1,1.88,4.17,4.17,0,0,1-2.61.67c-.41,0-1.15,0-2.25-.12v-2.6h.78a2.67,2.67,0,0,0,1.49-.28c.27-.19.39-.65.39-1.39V199.88Z" transform="translate(-22.51 -69.31)"/><path class="cls-3" d="M608.28,213.69h3.44a10.25,10.25,0,0,0,2.29-.16,2.15,2.15,0,0,0,1.15-.67,1.91,1.91,0,0,0,.51-1.35,1.82,1.82,0,0,0-.86-1.65,6.06,6.06,0,0,0-3-.53h-3.59Zm-3.54-13.82h3.54v6.64H613c2.22,0,3.83.49,4.83,1.49a4.84,4.84,0,0,1,1.49,3.55,4.61,4.61,0,0,1-.9,2.9,4.81,4.81,0,0,1-2.07,1.63,10.23,10.23,0,0,1-3.34.42h-8.25Z" transform="translate(-22.51 -69.31)"/><polygon class="cls-3" points="599.7 147.19 599.7 130.56 603.24 130.56 603.24 137.11 610.12 137.11 610.12 130.56 613.66 130.56 613.66 147.19 610.12 147.19 610.12 139.92 603.24 139.92 603.24 147.19 599.7 147.19"/><path class="cls-3" d="M656.53,199.88h3.54v16.63h-3.54Zm-13.05,13.82h3.44a10.39,10.39,0,0,0,2.29-.16,2.15,2.15,0,0,0,1.15-.67,1.89,1.89,0,0,0,.51-1.32,1.79,1.79,0,0,0-.83-1.65,5.63,5.63,0,0,0-3-.56h-3.59Zm-3.54-13.82h3.54v6.64h4.71a9.26,9.26,0,0,1,3.2.49,4.66,4.66,0,0,1,2.24,1.72,4.85,4.85,0,0,1,.88,2.86,4.73,4.73,0,0,1-.93,2.9,4.62,4.62,0,0,1-2.08,1.63,10.9,10.9,0,0,1-3.32.39h-8.25Z" transform="translate(-22.51 -69.31)"/><path class="cls-3" d="M672.8,195.07h1.63a3.46,3.46,0,0,1-1.15,2.42,3.75,3.75,0,0,1-2.56.88,3.82,3.82,0,0,1-2.59-.88,3.43,3.43,0,0,1-1.12-2.42h1.64a1.67,1.67,0,0,0,.59,1.21,2.29,2.29,0,0,0,1.49.42,2.34,2.34,0,0,0,1.49-.42,1.67,1.67,0,0,0,.59-1.21Zm-9,4.81h3.3V211l7.08-11.08h3.51v16.63h-3.29V205.61l-7.08,10.89h-3.51Z" transform="translate(-22.51 -69.31)"/><polygon class="cls-3" points="665.59 130.56 669.13 130.56 669.13 144.38 675.94 144.38 675.94 130.56 679.48 130.56 679.48 144.38 680.94 144.38 680.94 150.81 677.99 150.81 677.99 147.19 665.59 147.19 665.59 130.56"/><polygon class="cls-3" points="683.38 147.19 683.38 130.56 696.32 130.56 696.32 133.37 686.92 133.37 686.92 137.06 695.66 137.06 695.66 139.88 686.92 139.88 686.92 144.38 696.66 144.38 696.66 147.19 683.38 147.19"/><polygon class="cls-3" points="699.66 147.19 699.66 130.56 703.2 130.56 703.2 137.11 710.08 137.11 710.08 130.56 713.62 130.56 713.62 147.19 710.08 147.19 710.08 139.92 703.2 139.92 703.2 147.19 699.66 147.19"/><polygon class="cls-3" points="721.21 147.19 721.21 133.37 716.03 133.37 716.03 130.56 729.9 130.56 729.9 133.37 724.75 133.37 724.75 147.19 721.21 147.19"/><path class="cls-3" d="M758.24,202.69v4.74h1.93a10,10,0,0,0,2.78-.26,2.44,2.44,0,0,0,1.1-.83,2.12,2.12,0,0,0,.39-1.3,2.09,2.09,0,0,0-.56-1.49,2.37,2.37,0,0,0-1.42-.74,17.91,17.91,0,0,0-2.51-.12Zm-3.54,13.82V199.88h5.66a20,20,0,0,1,4.2.26,4.51,4.51,0,0,1,2.51,1.63,5,5,0,0,1,1,3.23,5.21,5.21,0,0,1-.59,2.58,4.73,4.73,0,0,1-1.46,1.65,5.68,5.68,0,0,1-1.83.79,23.74,23.74,0,0,1-3.66.23h-2.29v6.27Z" transform="translate(-22.51 -69.31)"/><polygon class="cls-4" points="652.04 10.65 651.95 108.19 696.11 108.2 734.77 53.97 734.74 108.23 771.57 108.22 771.58 10.65 731.16 10.64 688.97 67.5 688.96 10.63 652.04 10.65"/><polygon class="cls-1" points="652.04 10.65 651.95 108.19 696.11 108.2 734.77 53.97 734.74 108.23 771.57 108.22 771.58 10.65 731.16 10.64 688.97 67.5 688.96 10.63 652.04 10.65"/></svg>