<svg xmlns="http://www.w3.org/2000/svg" viewBox="0 0 1007 280.83"><defs><style>.cls-1{fill:#a0be37;}.cls-2{fill:none;}.cls-3{fill:#3b3d42;}.cls-4{fill:#fff;}</style></defs><title>flowers</title><g id="Layer_1" data-name="Layer 1"><circle class="cls-1" cx="140.24" cy="140.24" r="140.24"/><circle class="cls-2" cx="140.24" cy="140.24" r="140.24"/><path class="cls-3" d="M90,412.78a5.73,5.73,0,0,0-4.23,4.86c-1.41,11.74,1.09,21.6,7.43,29.31,9.74,11.84,24.92,14.17,31,14.63l.43,0a5.73,5.73,0,0,0,5.64-4.74c2.93-16.59-.35-30.68-9-38.63C116,413.37,106.31,408.49,90,412.78Zm29.7,36.59c-5.28-1.11-12.7-3.7-17.65-9.7-3.58-4.35-5.32-9.94-5.19-16.64,5.59-.89,12-.6,16.64,3.63C118.39,431.13,120.56,439.25,119.73,449.37Z" transform="translate(-7 -242.75)"/><path class="cls-3" d="M229.87,411.48a5.75,5.75,0,0,0-6-4.53c-22.05,1.45-38.35,8.4-48.44,20.66-10.45,12.7-14.21,31.09-11.18,54.66a5.73,5.73,0,0,0,6.43,4.95c25-3.29,42.54-11.93,52.27-25.69C231.9,448.91,234.22,432.07,229.87,411.48Zm-16.25,43.43c-5.77,8.15-15.41,14.12-28.77,17.84l18.65-22.14a5.73,5.73,0,1,0-8.77-7.38l-20,23.75c0-13.61,3.23-24.38,9.57-32.09,7.26-8.82,19.11-14.21,35.28-16.06C221.94,433.85,219.94,446,213.62,454.91Z" transform="translate(-7 -242.75)"/><path class="cls-3" d="M148.11,396.56a5.2,5.2,0,0,1-1.75,0c-1.63-.28-3.22-.58-4.8-.9V523.09c1.88.08,3.77.13,5.67.13s3.87-.05,5.79-.14V395.64C151.41,396,149.78,396.28,148.11,396.56Z" transform="translate(-7 -242.75)"/><path class="cls-4" d="M147.24,396.63a5.21,5.21,0,0,1-.87-.07c-29.25-5-50.17-16.46-62.19-34.15-11.09-16.32-14.06-37.13-8.83-61.86a5.21,5.21,0,0,1,5.44-4.12c15.06,1,28,4.11,38.42,9.28,5.1-10.37,13.34-20.68,24.57-30.72a5.21,5.21,0,0,1,6.94,0c11.23,10,19.47,20.36,24.57,30.72,10.47-5.17,23.36-8.29,38.42-9.28a5.18,5.18,0,0,1,5.44,4.12c5.23,24.73,2.26,45.54-8.83,61.86-12,17.68-32.94,29.17-62.19,34.15A5.21,5.21,0,0,1,147.24,396.63ZM84.68,307.21c-3.39,19.85-.66,36.43,8.12,49.35,10.25,15.08,28.56,25,54.44,29.58,25.88-4.55,44.2-14.5,54.45-29.58,8.78-12.92,11.5-29.5,8.12-49.35-13.9,1.39-25.42,4.83-34.29,10.25a5.21,5.21,0,0,1-7.58-2.58c-3.68-9.57-10.63-19.29-20.7-28.92-10.06,9.63-17,19.35-20.7,28.92a5.21,5.21,0,0,1-7.58,2.58C110.09,312,98.57,308.6,84.68,307.21Z" transform="translate(-7 -242.75)"/><path class="cls-1" d="M673.9,350.25c24.09,0,23.7,22.37,20.37,22.37l-47,0c0-6.85,9-22.34,26.66-22.34M673,442.37h0c41.2,0,56.44-32.44,40.72-33.73-4.28-.35-8,7-30.93,7-24.08,0-34-12.16-35.45-21.51h64c8.25,0,12.81-7.34,14-12,5.05-20.23-5.56-58.84-52.27-58.84-44.47,0-60.24,35.31-60.24,60.76,0,25.65,17.89,58.23,60.23,58.23" transform="translate(-7 -242.75)"/><path class="cls-1" d="M561.27,361.57c0-3.51-2.61-10.55-11.73-10.46H530v21.52h19.58c6.69,0,11.77-4.08,11.73-11.06m3.94,43.93h0c0-6.63-4.15-11.31-11.38-11.31H530v11c0,4.88,3.52,10.76,10.4,10.76h14.39c4.77,0,10.46-4.17,10.46-10.46m-69.13-2.11h0V325.95h55.39c23.1,0,41.61,11.74,41.61,32,0,13.24-8,19.66-13,22.16,5.67,2,18.33,8.81,18.33,25.82,0,22-18.64,33.91-43.5,33.9H530.2c-18.66,0-34.12-6.86-34.12-36.42" transform="translate(-7 -242.75)"/><path class="cls-1" d="M775.12,433.95V351.13H746.24a6.26,6.26,0,0,1-6.36-6V326.05h98a6.37,6.37,0,0,1,6.37,6.39v18.69H809v88.79H781.51a6.37,6.37,0,0,1-6.4-6" transform="translate(-7 -242.75)"/><path class="cls-1" d="M1007.48,326.05H980.22V433.76a6.39,6.39,0,0,0,6.43,6.16h27.25V332.22A6.39,6.39,0,0,0,1007.48,326.05Z" transform="translate(-7 -242.75)"/><path class="cls-1" d="M919.84,372.63H900.06V332.22a6.39,6.39,0,0,0-6.43-6.16H866.38v77.34c0,29.56,15.46,36.42,34.12,36.42h24.68c24.86,0,43.5-11.9,43.5-33.9C968.67,388.9,954.22,372.63,919.84,372.63ZM925,416H910.65c-6.88,0-10.4-5.88-10.4-10.76v-11h23.86c7.23,0,11.38,4.68,11.38,11.3C935.51,411.78,929.82,416,925,416Z" transform="translate(-7 -242.75)"/><path class="cls-1" d="M471.75,414.85H456.84V332.22a6.39,6.39,0,0,0-6.43-6.16H423.16v88.79H399.91a10.81,10.81,0,0,1-10.82-10.76V332.26a6.28,6.28,0,0,0-6.33-6.21H355.15V403.5c0,29.57,15.46,36.42,34.12,36.42h64.06c4.72,11.16,14,15.45,24.94,16.45v-35A6.52,6.52,0,0,0,471.75,414.85Z" transform="translate(-7 -242.75)"/><path class="cls-3" d="M612.89,523V481.32h11.88q5.7,0,8.58,2.78t2.88,8.33a9.22,9.22,0,0,1-1.46,5.15,9.79,9.79,0,0,1-4,3.46,7.94,7.94,0,0,1,4.54,3.52A11.79,11.79,0,0,1,637,511q0,5.61-3.08,8.82t-8.77,3.2Zm5.24-23.91h6.73a5.66,5.66,0,0,0,4.39-1.84,7,7,0,0,0,1.68-4.88q0-3.44-1.52-5a6.19,6.19,0,0,0-4.64-1.57h-6.64Zm0,4.41v15h7.16a6,6,0,0,0,4.73-2,8,8,0,0,0,1.75-5.51q0-7.53-6.35-7.53Z" transform="translate(-7 -242.75)"/><path class="cls-3" d="M711,503.74H696.27v14.77h17.18V523H691V481.32h22.13v4.5H696.27v13.43H711Z" transform="translate(-7 -242.75)"/><path class="cls-3" d="M736.51,523V481.32h11.88q5.7,0,8.58,2.78t2.88,8.33a9.22,9.22,0,0,1-1.46,5.15,9.79,9.79,0,0,1-4,3.46,7.94,7.94,0,0,1,4.54,3.52,11.79,11.79,0,0,1,1.67,6.41q0,5.61-3.08,8.82t-8.77,3.2Zm5.24-23.91h6.73a5.66,5.66,0,0,0,4.39-1.84,7,7,0,0,0,1.68-4.88q0-3.44-1.52-5a6.19,6.19,0,0,0-4.64-1.57h-6.64Zm0,4.41v15h7.16a6,6,0,0,0,4.72-2,8,8,0,0,0,1.75-5.51q0-7.53-6.35-7.53Z" transform="translate(-7 -242.75)"/><path class="cls-3" d="M790.1,506.69V523h-5.24V481.32h13.29q5.81,0,9.13,3.48a12.86,12.86,0,0,1,3.32,9.26q0,6-3.16,9.26t-8.92,3.37Zm0-4.5h8a6.79,6.79,0,0,0,5.35-2.09,8.74,8.74,0,0,0,1.86-6,9,9,0,0,0-1.92-6,6.54,6.54,0,0,0-5.27-2.26H790.1Z" transform="translate(-7 -242.75)"/><path class="cls-3" d="M860.83,505.83q0,8.53-3.64,13.14t-10.34,4.61a12.56,12.56,0,0,1-10.18-4.48q-3.74-4.48-3.88-12.67v-7.85q0-8.36,3.69-13.1a12.33,12.33,0,0,1,10.31-4.74q6.59,0,10.26,4.54t3.77,13Zm-5.24-7.3q0-6.61-2.16-9.84a8.31,8.31,0,0,0-13.17,0Q838,492,838,498.36v7.47q0,6.39,2.22,9.74a7.43,7.43,0,0,0,6.63,3.35q4.41,0,6.53-3.09t2.21-9.48Z" transform="translate(-7 -242.75)"/><path class="cls-3" d="M912.41,505.83q0,8.53-3.64,13.14t-10.34,4.61a12.55,12.55,0,0,1-10.18-4.48q-3.74-4.48-3.88-12.67v-7.85q0-8.36,3.69-13.1a12.33,12.33,0,0,1,10.31-4.74q6.59,0,10.26,4.54t3.77,13Zm-5.24-7.3q0-6.61-2.16-9.84a8.31,8.31,0,0,0-13.17,0q-2.22,3.26-2.25,9.62v7.47q0,6.39,2.22,9.74a7.43,7.43,0,0,0,6.63,3.35q4.41,0,6.53-3.09t2.21-9.48Z" transform="translate(-7 -242.75)"/><path class="cls-3" d="M964,523H958.7V485.82H942.38V523h-5.24V481.32H964Z" transform="translate(-7 -242.75)"/><path class="cls-3" d="M1014,485.82h-11V523h-5.24V485.82H986.85v-4.5H1014Z" transform="translate(-7 -242.75)"/></g></svg>