<svg id="Слой_1" data-name="Слой 1" xmlns="http://www.w3.org/2000/svg" xmlns:xlink="http://www.w3.org/1999/xlink" width="150.49mm" height="27.02mm" viewBox="0 0 426.58 76.59"><defs><style>.cls-1{fill:url(#Безымянный_градиент_9);}.cls-2{fill:url(#Безымянный_градиент_2);}.cls-3{fill:url(#Безымянный_градиент_3);}.cls-4{fill:url(#Безымянный_градиент_7);}.cls-5{fill:#244621;}.cls-6{fill:url(#Безымянный_градиент_5);}.cls-7{fill:#fff;}.cls-8{fill:url(#Безымянный_градиент_8);}.cls-9{fill:url(#Безымянный_градиент_7-2);}.cls-10{fill:url(#Безымянный_градиент_8-2);}.cls-11{fill:#23381f;}.cls-12{fill:#767372;}</style><radialGradient id="Безымянный_градиент_9" cx="37.44" cy="18746.06" r="33.39" gradientTransform="translate(-1.95 -4056.82) scale(1 0.22)" gradientUnits="userSpaceOnUse"><stop offset="0" stop-color="#808081"/><stop offset="0.77" stop-color="#fff"/></radialGradient><linearGradient id="Безымянный_градиент_2" x1="88.7" y1="1938.04" x2="428.53" y2="1938.04" gradientTransform="translate(-1.95 -1915.75)" gradientUnits="userSpaceOnUse"><stop offset="0" stop-color="#35a436"/><stop offset="0.25" stop-color="#47ac34"/><stop offset="0.7" stop-color="#61b22f"/><stop offset="1" stop-color="#6ab430"/></linearGradient><radialGradient id="Безымянный_градиент_3" cx="18.4" cy="967.14" r="66.6" gradientTransform="translate(0 -956)" gradientUnits="userSpaceOnUse"><stop offset="0" stop-color="#e2e151"/><stop offset="0.01" stop-color="#dedf4f"/><stop offset="0.13" stop-color="#b4ce44"/><stop offset="0.23" stop-color="#96c239"/><stop offset="0.32" stop-color="#83bc34"/><stop offset="0.38" stop-color="#7dba32"/><stop offset="0.72" stop-color="#30a836"/><stop offset="1" stop-color="#97c21e"/></radialGradient><radialGradient id="Безымянный_градиент_7" cx="24.16" cy="1079.73" r="10.65" gradientTransform="translate(0 -964.03) scale(1 0.91)" gradientUnits="userSpaceOnUse"><stop offset="0.73" stop-color="#fff"/><stop offset="0.79" stop-color="#f5fbfe"/><stop offset="0.89" stop-color="#d9eff9"/><stop offset="1" stop-color="#b4e0f3"/></radialGradient><linearGradient id="Безымянный_градиент_5" x1="40.47" y1="1002.57" x2="41.37" y2="1013.85" gradientTransform="translate(0 -956)" gradientUnits="userSpaceOnUse"><stop offset="0" stop-color="#19361f"/><stop offset="1" stop-color="#2f522e"/></linearGradient><linearGradient id="Безымянный_градиент_8" x1="22.99" y1="975.78" x2="23.35" y2="985.82" gradientTransform="translate(0 -956)" gradientUnits="userSpaceOnUse"><stop offset="0" stop-color="#489634"/><stop offset="0.17" stop-color="#50a133"/><stop offset="0.46" stop-color="#67b32e"/><stop offset="0.84" stop-color="#8bbe23"/><stop offset="1" stop-color="#98c21d"/></linearGradient><radialGradient id="Безымянный_градиент_7-2" cx="-1377.52" cy="1077.04" r="9.37" gradientTransform="matrix(-1, 0, 0, 0.91, -1328.45, -964.03)" xlink:href="#Безымянный_градиент_7"/><linearGradient id="Безымянный_градиент_8-2" x1="-1378.45" y1="973.62" x2="-1378.14" y2="982.23" gradientTransform="matrix(-1, 0, 0, 1, -1328.45, -956)" xlink:href="#Безымянный_градиент_8"/></defs><title>gipermall</title><g id="Слой_1-2" data-name="Слой 1"><path class="cls-1" d="M35.56,58.18c14.55,0,27.34,5.78,27.34,9.21s-12.79,9.21-27.34,9.21S8.22,70.81,8.22,67.39,21,58.18,35.56,58.18Z"/><path class="cls-2" d="M113.28,6l-4,4.14a8.83,8.83,0,0,0-6.59-2.82C98.22,7.34,95,10.54,95,22.2s2.07,14.87,6.4,14.87a9,9,0,0,0,4.33-1.32V25.4h-4.14l-.75-5.83h12.61V39.33a19.13,19.13,0,0,1-11.85,4c-10,0-14.87-6.4-14.87-21.07s7-20.89,15.62-20.89A13.64,13.64,0,0,1,113.28,6Zm16.18,36.13h-8.09V2.07h8.09Zm32.93-27.28c0,9-5.27,13.36-14.11,13.36H146V42.15h-8.09V2.07h9.6c9.6,0,14.68,4.33,14.87,12.8Zm-8.28,0c0-4.89-1.88-7-6.4-7H146V22.2h1.51c4.52.19,6.59-1.69,6.59-7.34Zm33.68-7H176.5V18.82h10v6h-10V36.32h12v6H168.41V2.07h20.13ZM213,42.15l-6.77-16h-3v16h-8.09V2.07h10c10,0,14.49,4.33,14.49,11.85a10.93,10.93,0,0,1-6.21,10.73l8.28,17.5Zm-1.69-28.23c0-4.14-1.69-6-6.21-6h-1.69V20.51h2.07c4.14,0,5.83-2.07,5.83-6.59ZM260.8,42.15h-7.71l-.56-16.56c-.19-5.83-.38-11.67-.19-16.18l-4.89,28.41h-7.53L234.64,9.6c.19,5.46.19,10.73,0,16.37l-.56,16.37h-7.53L229,2.26h10l4.7,27.85L248,2.26h10.16Zm24.46-9.22h-9.41l-1.69,9.22h-7.9L276,2.07h9.6l9.6,40.08h-8.09Zm-1.13-5.83L280.56,8.28,277,27.1ZM309,35.56h12.61l-.75,6.59H301.07V2.07h8.09Zm26.53,0h12.61l-.75,6.59H327.41V2.07h8.09Zm27.66,2.82a4.62,4.62,0,0,1-9.22-.56,4.54,4.54,0,0,1,4.52-4.33,4.7,4.7,0,0,1,4.7,4.89c-.19-.19-.19,0,0,0Zm32.36-7.9c0,8.28-6,11.67-14.49,11.67H370.69V2.07h9c9,0,14.49,3.39,14.49,10.35a8.49,8.49,0,0,1-6.77,8.66c4.33.75,8.09,3.39,8.09,9.41ZM378.59,7.9V18.44h2.07c3.76,0,5.27-1.88,5.27-5.27s-1.69-5.08-5.65-5.08l-1.69-.19Zm8.66,22.39c0-4.33-1.88-6.21-6-6.21h-2.63v12H381c3.76,0,6.21-1.51,6.21-5.83Zm29.17-3.39V42.15h-8.09V27.1L398,2.07h8.47l6,18.44,6-18.44h8.09Z"/><circle class="cls-3" cx="35.38" cy="35.38" r="35.38"/><path class="cls-4" d="M16.37,28c-4.52-9.41.38-17.69,8.47-17.12C35,11.67,38,29,24.65,32.36,21.45,29.35,18.44,28,16.37,28Z"/><path class="cls-5" d="M16.18,28.41c-.38-.56-.56-1.13-.94-1.69L14.68,25a10.66,10.66,0,0,1-.56-3.39,13.37,13.37,0,0,1,1.51-7,9.32,9.32,0,0,1,5.65-4.33,9.49,9.49,0,0,1,7.15.56,10.27,10.27,0,0,1,4.89,5.27,13.28,13.28,0,0,1,.94,7.15,11.54,11.54,0,0,1-3.2,6.4,13.12,13.12,0,0,1-6.21,3.2c-.19,0-.56,0-.56-.19h0a26.22,26.22,0,0,0-3.58-2.82A7,7,0,0,0,18.63,29c-.38-.19-.75-.19-1.13-.38a4.24,4.24,0,0,1-1.32-.19Zm.56-.75h.94a2.67,2.67,0,0,1,1.13.38,11.51,11.51,0,0,1,2.26.94,15.07,15.07,0,0,1,4,2.82l-.56-.19a12,12,0,0,0,5.46-3,8.82,8.82,0,0,0,2.63-5.46c.56-4.14-1.13-8.66-4.89-10.54a8.37,8.37,0,0,0-10.73,3,9.64,9.64,0,0,0-1.51,6,18.54,18.54,0,0,0,.38,3.2,5.82,5.82,0,0,1,.38,1.51,9.17,9.17,0,0,1,.56,1.32Z"/><g id="_Group_" data-name="&lt;Group&gt;"><path class="cls-6" d="M58.33,34.06h0c-8.47,16.75-31.42,13-35,4.7h0c-1.69-.19-3-1.32-4.52-1.88L16,35.94C18.25,41,23.14,47.79,27.66,51.37h0c5.65,4.7,12.42,7.15,17.69,5.27a11.21,11.21,0,0,0,4-2.63h0C54.94,48.36,57,36.5,62.85,31,61.34,32,59.84,33.12,58.33,34.06Z"/><path class="cls-7" d="M58.33,34.06c-8.47,16.75-31.42,12.8-35,4.7h0C34.06,41.21,49.11,39,58.33,34.06Z"/><path class="cls-5" d="M12.8,40.08a8.86,8.86,0,0,1,.75-3A5.72,5.72,0,0,1,16,34.81a8.86,8.86,0,0,1,3.2-.75,8.52,8.52,0,0,1,3,.56c.19,0,.38.38.38.56a.4.4,0,0,1-.38.38c-1.88.19-3.76.19-5.08.94-1.51.56-2.26,2.07-3,3.76a1,1,0,0,1-.75.38C12.8,40.46,12.8,40.27,12.8,40.08Z"/><path class="cls-5" d="M18.63,36.69a29.33,29.33,0,0,0,10,1.88,58.49,58.49,0,0,0,10-.19,62,62,0,0,0,19.19-5.27l-.56.75h0c0-.38.19-.56.56-.75A14,14,0,0,0,60,31.8L61.15,31l.94-.75h0a.47.47,0,0,1,.75.19.57.57,0,0,1,0,.75l-.94.94c-.38.38-.75.56-1.13.94a15.7,15.7,0,0,1-2.26,1.51l.56-.75h0a1,1,0,0,1-.38.75h0a46.18,46.18,0,0,1-9.6,3.76A64.23,64.23,0,0,1,39,40.27a47.57,47.57,0,0,1-10.35,0,24.34,24.34,0,0,1-10.35-3.58c-.38-.19-.19.38,0,0C18.25,36.5,18.44,36.69,18.63,36.69Z"/><path class="cls-5" d="M16.56,35.56a30.61,30.61,0,0,0,2.07,4.33c.75,1.32,1.69,2.63,2.63,4A28.94,28.94,0,0,0,28,50.62l-.56-.19h0a.69.69,0,0,1,.56.19h0A25.09,25.09,0,0,0,38.2,55.89a11.47,11.47,0,0,0,5.65,0,9,9,0,0,0,4.7-2.63l-.19.56h0a1.9,1.9,0,0,1,.19-.56,22.82,22.82,0,0,0,4.14-6c1.13-2.26,2.26-4.52,3.2-6.77a60.89,60.89,0,0,1,3.76-6.77,15.75,15.75,0,0,1,5.83-5.27.42.42,0,0,1,.38.75,13.18,13.18,0,0,0-5.08,5.08,43.53,43.53,0,0,0-3.39,6.59c-.94,2.26-2.07,4.7-3.2,7a28.39,28.39,0,0,1-4.33,6.59l.19-.56h0a.69.69,0,0,1-.19.56h0a10.62,10.62,0,0,1-5.65,3.2,12.31,12.31,0,0,1-6.4-.19A16.32,16.32,0,0,1,32,55.51a23.91,23.91,0,0,1-5.08-3.39l.56.19h0a.69.69,0,0,1-.56-.19,31.46,31.46,0,0,1-6.77-7.34,33.14,33.14,0,0,1-2.63-4.33,46,46,0,0,1-1.88-4.52c-.19-.19,0-.56.38-.75.19,0,.38,0,.56.38Z"/></g><path class="cls-5" d="M60.78,28c.38-.19.75-.19,1.13-.38.38,0,.75-.19,1.13-.19a13,13,0,0,1,2.45.38,7.77,7.77,0,0,1,2.07,1.32,4,4,0,0,1,1.32,2.07c0,.19,0,.56-.38.56-.19,0-.38,0-.38-.19h0a10.44,10.44,0,0,0-1.51-1.13,6.68,6.68,0,0,0-1.69-.75,12.51,12.51,0,0,0-4-.56h0a.6.6,0,0,1-.56-.56C60.59,28.23,60.59,28,60.78,28Z"/><path class="cls-5" d="M7.53,28.6a17.12,17.12,0,0,1,9.22-1.51,10.2,10.2,0,0,1,4.52,1.69A11.55,11.55,0,0,1,24.84,32a.57.57,0,0,1,0,.75.35.35,0,0,1-.56,0,40.3,40.3,0,0,0-3.58-2.45,10.44,10.44,0,0,0-4.14-1.13,26.89,26.89,0,0,0-8.66.56c-.38,0-.56-.19-.56-.38C7.15,29,7.34,28.6,7.53,28.6Z"/><ellipse class="cls-8" cx="23.14" cy="24.09" rx="4.52" ry="4.89"/><path d="M22,28.23c-1.13,0-2.07-1.32-2.07-2.82s.75-2.82,2.07-2.82c1.13,0,2.07,1.32,2.07,2.82S23.14,28.23,22,28.23Z"/><ellipse class="cls-7" cx="21.26" cy="27.1" rx="0.75" ry="0.94"/><ellipse class="cls-7" cx="23.71" cy="22.96" rx="1.13" ry="1.32"/><path class="cls-9" d="M55.51,24.09c4.52-6.4.38-14.87-7.34-14.3-9.22.56-11.29,17.69,1.88,18.63C51.56,26,52.69,25.21,55.51,24.09Z"/><path class="cls-5" d="M55.13,23.71h0l.56-1.13c.19-.38.38-.94.56-1.32a14.52,14.52,0,0,0,.38-2.82,8,8,0,0,0-1.88-5.08c-2.07-3-6.77-3.58-9.6-1.69-3,2.07-4.14,6.21-3.2,9.78A8.07,8.07,0,0,0,45,26a12.64,12.64,0,0,0,5.27,1.88l-.56.38a12.38,12.38,0,0,1,2.63-2.82A7.63,7.63,0,0,1,54,24.46,1.55,1.55,0,0,1,55.13,23.71Zm.75.56h0a17.48,17.48,0,0,0-1.88.94,3.38,3.38,0,0,0-1.32.94,9.15,9.15,0,0,0-2.07,2.63h0c-.19.19-.38.38-.56.38a11.37,11.37,0,0,1-6-1.88A9.54,9.54,0,0,1,40.27,22c-1.13-4.14.19-9.22,4-11.67a9.27,9.27,0,0,1,12,2.07,10.13,10.13,0,0,1,2.07,6,9.56,9.56,0,0,1-.56,3.2c-.19.56-.38.94-.56,1.51A8.18,8.18,0,0,0,55.89,24.27Z"/><path class="cls-5" d="M61.91,23.52A24.41,24.41,0,0,0,55.51,25a13.86,13.86,0,0,0-5.08,3.58.57.57,0,0,1-.75,0,.69.69,0,0,1-.19-.56,7.88,7.88,0,0,1,2.07-3,11,11,0,0,1,3.2-1.88,12.73,12.73,0,0,1,7-.75c.38,0,.56.38.38.56C62.28,23.33,62.1,23.52,61.91,23.52Z"/><ellipse class="cls-10" cx="49.86" cy="21.26" rx="3.95" ry="4.33"/><path d="M49.11,24.46A2.32,2.32,0,0,0,51,22a2.32,2.32,0,0,0-1.88-2.45A2.32,2.32,0,0,0,47.23,22,2.32,2.32,0,0,0,49.11,24.46Z"/><ellipse class="cls-7" cx="48.55" cy="23.52" rx="0.56" ry="0.75"/><ellipse class="cls-7" cx="50.99" cy="19.95" rx="0.94" ry="1.13"/><path class="cls-11" d="M11.67,13.36a14.74,14.74,0,0,1,.75-4.89,13.57,13.57,0,0,1,3.2-4.33A8.66,8.66,0,0,1,20.7,2.45a8.69,8.69,0,0,1,4.89,1.32A1.25,1.25,0,0,1,26,5.08a1,1,0,0,1-.94.56h0c-2.82-.19-5.27.19-7.15,1.69A6.26,6.26,0,0,0,15.62,10c-.56,1.13-1.13,2.45-1.69,3.76h0a1.26,1.26,0,0,1-1.51.56A1.88,1.88,0,0,1,11.67,13.36Z"/><path class="cls-11" d="M43.28,5.08a5.82,5.82,0,0,1,4.14-3.39,8.28,8.28,0,0,1,5.27.75,11.08,11.08,0,0,1,6,7.34A.83.83,0,0,1,58,10.91a1.41,1.41,0,0,1-.94-.19h0A20,20,0,0,0,54.19,7.9,11,11,0,0,0,51,6a7.17,7.17,0,0,0-3.2-.75A4.52,4.52,0,0,0,45,6.4h0a1,1,0,0,1-1.51-.19A.91.91,0,0,1,43.28,5.08Z"/></g><path class="cls-12" d="M101.42,58l-7,11.48H91.83V54h2.82V65.48l7-11.48h2.63V69.43h-2.82Z"/><path class="cls-12" d="M121.37,62.28h-6.77v7.15h-2.82V54h2.82v6.21h6.77V54h2.82V69.43h-2.82Z"/><path class="cls-12" d="M137,56.07V69.43h-2.82V56.07H130V54h11.29l-.75,2.07Z"/><path class="cls-12" d="M147.34,54h8.47l-.56,2.07h-5.08V60.4h5.08v2.07h-5.08v4.7h5.65v2.07h-8.47Z"/><path class="cls-12" d="M166.72,54c3.58,0,6,1.32,6,4.89,0,2.82-1.51,5.27-4.89,5.27h-1.69l.75-2.07h.56c1.69,0,2.45-1.32,2.45-3.2,0-2.07-1.32-2.82-3.39-2.82h-1.32V69.43h-2.82V54Z"/><path class="cls-12" d="M188.54,62.28h-6.77v7.15h-2.82V54h2.82v6.21h6.77V54h2.82V69.43h-2.82Z"/><path class="cls-12" d="M198.89,54h8.47l-.56,2.07h-5.08V60.4h5.08v2.07h-5.08v4.7h5.65v2.07h-8.47Z"/><path class="cls-12" d="M219.78,56.07V69.43H217V56.07h-4.14V54h11.29l-.75,2.07Z"/><path class="cls-12" d="M227.68,62.28h5.08v1.88h-5.08Z"/><path class="cls-12" d="M242.36,56.07V69.43h-2.82V54h8.66l-.56,2.07Z"/><path class="cls-12" d="M263.81,58l-7,11.48h-2.63V54H257V65.48L264,54h2.63V69.43h-2.82Z"/><path class="cls-12" d="M283.38,56.07H277V69.25h-2.82V53.82H286V69.25h-2.82l.19-13.17Z"/><path class="cls-12" d="M293.73,54h8.47l-.56,2.07h-5.08V60.4h5.08v2.07h-5.08v4.7h5.65v2.07h-8.47Z"/><path class="cls-12" d="M313.11,54c3.58,0,6,1.32,6,4.89,0,2.82-1.51,5.27-4.89,5.27h-1.69l.75-2.07h.56c1.69,0,2.45-1.32,2.45-3.2,0-2.07-1.32-2.82-3.39-2.82h-1.32V69.43h-2.82V54Z"/><path class="cls-12" d="M337,58.33l-4.14,7.15h-1.13l-4-6.59V69.25h-2.26V53.82h2.26l5.08,8.09,4.7-8.09H340V69.25H337.2L337,58.33Z"/><path class="cls-12" d="M355.07,66h-5.65l-1.13,3.39h-2.63L350.93,54h2.82L359,69.43h-3ZM350,64h4.52l-2.26-7.15Z"/><path class="cls-12" d="M369.56,54c3.58,0,6,1.32,6,4.89,0,2.82-1.51,5.27-4.89,5.27H369l.75-2.07h.56c1.69,0,2.45-1.32,2.45-3.2,0-2.07-1.32-2.82-3.39-2.82h-1.32V69.43h-2.82V54Z"/><path class="cls-12" d="M384.61,61.53v7.71H382V53.82h2.82V61l6-7.34,2.63.38-5.83,7,5.83,8.09-2.82.56Z"/><path class="cls-12" d="M399.67,54h8.47l-.56,2.07h-5.08V60.4h5.08v2.07h-5.08v4.7h5.65v2.07h-8.47Z"/><path class="cls-12" d="M420.37,56.07V69.43h-2.63V56.07h-4.14V54h11.29l-.75,2.07Z"/></svg>