<?xml version="1.0" encoding="utf-8"?>
<!-- Generator: Adobe Illustrator 21.1.0, SVG Export Plug-In . SVG Version: 6.00 Build 0)  -->
<svg version="1.1" id="Слой_1" xmlns="http://www.w3.org/2000/svg" xmlns:xlink="http://www.w3.org/1999/xlink" x="0px" y="0px"
	 viewBox="0 0 6236.2 3883.5" style="enable-background:new 0 0 6236.2 3883.5;" xml:space="preserve">
<style type="text/css">
	.st0{fill:#EC1C24;}
</style>
<g>
	<path class="st0" d="M170.1,3443.4c2.2-198.2,106.8-355.1,218-504.1c259.8-348.4,525.3-692.6,792.8-1035.2
		c43.4-55.5,49.3-94.1,17.8-158.5c-136.9-280.8-266.1-565.1-398.9-847.9c-15.3-32.9-32.5-65.2-52.5-95.3
		c-105.8-158.3-9.7-384.2,203.3-404.8c31.9-3,64.2-5.5,96.3-4.8c112.8,2.6,182.5,69.6,225.1,164.9c69,155.2,132.4,313.1,197.6,470.2
		c51.1,123.1,101.3,246.7,154.4,376.3c17.2-20.4,29.5-34.9,41.6-49.7c217-262,433.2-524.7,651.5-785.7
		c61.2-73.1,124.8-144.7,192.8-211.6c57.7-56.7,127.6-97.5,209.5-111.4c80.5-13.7,145.6,15.1,197,75.9
		c55.5,66,85.6,144.3,90.4,229.3c1.8,32.7-12.3,69.6-29.5,98.7c-17.8,30.7-45,58.1-73.5,79.9c-122.7,93.7-226.3,206.7-327.4,322
		c-230.7,262.8-460.3,526.9-690.8,789.9c-16.4,18.8-19.8,32.1-5.9,55.1c120.7,198.2,237.8,398.9,361,595.5
		c35.9,57.3,85.6,107.2,133.2,156.1c46.4,47.8,104.8,76.5,172.8,84.6c34.9,4,70.1,10.9,103.8,20.4c46.8,13.3,63.2,40.6,60.6,89.2
		c-3.6,64.8-32.3,117.1-79.1,160.1c-52.9,48.5-116.5,75.7-185.9,89.4c-201.9,40.6-371.9-21.2-516.8-162.7
		c-146.6-143.3-251.9-315.9-352.7-491.8c-31.3-54.5-61.2-110-93.1-167.8c-77.5,94.5-154.4,185.3-228.1,278.6
		c-197.2,249.1-392.9,499.4-589.3,749.2c-65.6,83.4-130.8,167-197.4,249.3c-13.3,16.6-31.3,29.3-48.7,42
		c-65.8,48.7-134.9,44.6-188.6-18.4c-26-30.7-39.8-71.7-59.2-108L170.1,3443.4z"/>
	<path class="st0" d="M6047.2,487.1c0.2-48.2-0.2-98.3-15.9-147.2c-23-71.9-56.3-120.9-114.5-144.9
		c-70.3-29.1-209.5-39.2-284.6,26.8c-62.6,54.9-90.4,122.5-53.7,196.8c19.8,39.8,30.7,78.7,33.5,119.5c8.7,124,5,250.9-10.9,388
		c-16.8,143.5-114.7,659.3-143.7,799.4l-5.2,26c-8.3,40.2-11.9,84.2-11.3,138.3c0.6,68.6,47.2,118.5,116.1,123.8
		c14.7,1.2,29.1,1.8,42.6,1.8c26.8,0,51.3-2.2,73.9-7.1c103.4-21.8,170-84.4,192.6-181.1c1.6-6.9,3.4-13.7,5.2-20.6
		c3-11.5,6.3-23.6,8.7-36.3C5905.7,1641.3,6039.8,860.2,6047.2,487.1"/>
	<path class="st0" d="M5482.2,2512c76.5,34.1,210.6,20.8,290.5-49.7c89-78.7,78.3-213.8-3.6-258.6
		C5540.7,2079.7,5095.2,2340,5482.2,2512"/>
	<path class="st0" d="M3815.1,1147.9c-40.8-18.4-80.1-29.5-116.7-32.7c-124.4-10.9-197.6,41-230.1,162.9
		c-9.9,37.1-18.6,74.9-26.8,111.4c-4.2,18.2-8.3,36.5-12.7,54.9c-1.6,6.5-2.8,12.9-4.2,19.6c-2.4,11.5-4.6,22.4-7.7,29.5
		c-97.1,215.4-208.1,398.9-339.6,561.2c-23.4,28.9-50.3,55.5-77.5,81c-0.8-10.9-1-22-0.6-33.1c2.8-81.8,21-162.9,42.6-252.8
		c6.7-28.3,13.5-56.5,20.4-84.8c19.4-80.3,39.6-163.3,58.1-245.3c10.7-46.8,20.2-109-1.6-174.2c-46.2-139.3-184.7-183.3-297.8-154.4
		c-70.9,18.2-105.6,59.8-112,135.3c-0.4,5-0.8,10.1-1.2,15.1c-1.2,14.5-2.2,28.3-4.4,40.4l-12.7,64.6
		c-20.4,103.8-41.4,211.2-63.8,315.9l-1.4,6.3c-31.1,145.2-63.4,295.3-61.8,451.6c1.4,127.6,53.9,229.9,156.3,304.6
		c61,44.2,122.9,66.4,185.7,66.4c56.9,0,114.5-18.2,172.2-54.7c57.3-36.1,110.2-84.6,166.3-152.8c41-49.5,79.3-103.4,116.1-162.9
		c0.4,44.6,4.8,98.5,22.6,153.4c24.8,75.9,82.4,133.4,157.9,157.7c75.7,24.2,156.1,10.9,220.7-36.9c56.7-41.8,71.1-103.2,38.6-164.5
		c-18.4-34.7-27.5-74.9-29.5-130c-5.2-147,5.5-296.8,31.5-444.7c18.2-103.4,39.2-208.3,59.4-309.9c9.7-48.5,19.2-96.9,28.7-145.4
		C3908.1,1205.4,3850.8,1164.2,3815.1,1147.9"/>
	<path class="st0" d="M5363.7,1178.2c-6.5-51.7-28.1-103-61-143.5c-30.9-38.2-73.3-83.8-122.5-96.5c-186.7-47.8-380.7-26-568.3,9.5
		c-157.9,29.9-313.5,71.7-466.5,120.1c-31.5,10.1-63.2,20.2-94.7,31.3c-91.9,32.5-77.9,146.8-38.6,217.2
		c26.4,47.6,62.8,94.7,110.4,122.5c33.9,20,82.2,44.2,122.3,30.1c82.6-29.3,166.5-55.7,251.3-79.3c5,116.1,0.8,235.2-13.5,363
		c-16.8,151.4-46.6,304.6-75.7,452.8l-5.5,27.5c-8.3,42.2-11.9,88.6-11.3,146c0.8,72.5,47.4,125,116.1,130.8
		c14.9,1.2,28.9,1.8,42.6,1.8c26.9,0,51.3-2.4,73.9-7.5c103.4-23,170.2-89.2,192.8-191.2c1.6-7.3,3.4-14.5,5-21.6
		c3-12.1,6.3-24.8,8.9-38.4c25.6-135.3,90.8-563.4,99.1-955.3c39.4-5.5,79.1-9.7,118.9-12.3c33.1-1.2,66-1.4,98.9,0.6
		c17.4,1,34.5,2.6,51.7,5c18.4,2.4,83.2,18.2,16.8,1c37.8,9.7,77.7,19.2,112.2-7.1C5358.2,1261.1,5368.3,1214.5,5363.7,1178.2"/>
</g>
</svg>
