<?xml version="1.0" encoding="utf-8"?>
<!-- Generator: Adobe Illustrator 21.0.0, SVG Export Plug-In . SVG Version: 6.00 Build 0)  -->
<svg version="1.1" id="Layer_1" xmlns="http://www.w3.org/2000/svg" xmlns:xlink="http://www.w3.org/1999/xlink" x="0px" y="0px"
	 viewBox="0 0 1190.6 317.6" style="enable-background:new 0 0 1190.6 317.6;" xml:space="preserve">
<style type="text/css">
	.st0{fill:#96D728;}
	.st1{fill:#363B45;}
</style>
<title>logo</title>
<path class="st0" d="M643.4,206.8L643.4,206.8c6.2,6.4,14.3,9.6,26,9.6c24.8,0,49.8-21.4,49.8-60.3c0-34.8-23.2-51.6-44-51.6
	c-20,0-27.9,11.4-31.8,17.1v-9c-0.1-3.3-2.7-5.9-6-6h-25.8v144.1c0,3.3,2.6,6,5.9,6c0,0,0.1,0,0.1,0h25.9L643.4,206.8z M643.4,148.1
	c1.9-5.4,8.5-17.6,22.7-17.6c8.9,0,21.1,3.4,21.1,26.4c0,25.2-14.7,34.7-26.9,34.7c-9.2,0-14.7-3.9-16.9-5.8V148.1z"/>
<path class="st0" d="M787.2,130.5L787.2,130.5c-15.2,0-23.5,11.4-23.5,30.5s8.1,30.5,23.5,30.5s23.5-11.1,23.5-30.5
	S802.4,130.5,787.2,130.5 M842.6,160.3c0,33.1-21.7,56.1-55.2,56.1s-55.2-23.4-55.2-56.1s21.6-56.1,55.2-56.1
	S842.6,127.2,842.6,160.3z"/>
<path class="st0" d="M910.8,130.4L910.8,130.4c-15.2,0-23.5,11.4-23.5,30.5s8.1,30.5,23.5,30.5s23.5-11.1,23.5-30.5
	S926.1,130.4,910.8,130.4 M966.3,160.2c0,33.1-21.7,56.1-55.2,56.1s-55.2-23.4-55.2-56.1s21.5-56.1,55.2-56.1
	S966.3,127.1,966.3,160.2z"/>
<path class="st0" d="M316,159.1c0,86.5-70.1,156.6-156.6,156.6S2.8,245.6,2.8,159.1C2.8,72.6,72.9,2.5,159.4,2.5
	C245.9,2.5,316,72.6,316,159.1C316,159.1,316,159.1,316,159.1"/>
<path class="st0" d="M429.7,216.1L429.7,216.1c38.7,0,53.1-30.5,38.3-31.7c-4-0.3-7.5,6.6-29.1,6.6c-22.6,0-32-11.4-33.3-20.2h60.2
	c7.8,0,12-6.9,13.1-11.2c4.8-19-5.2-55.3-49.1-55.3c-41.8,0-56.6,33.2-56.6,57.1C373,185.5,389.9,216.1,429.7,216.1 M430.5,129.5
	c22.7,0,22.3,21,19.2,21h-44.2C405.4,144.1,413.9,129.5,430.5,129.5L430.5,129.5z"/>
<path class="st0" d="M498.3,179.5L498.3,179.5v-72.8h52.1c21.7,0,39.1,11,39.1,30.1c0,12.4-7.5,18.5-12.3,20.8
	c5.3,1.9,17.2,8.3,17.2,24.3c0,20.7-17.5,31.9-40.9,31.9h-23.2C512.9,213.7,498.3,207.3,498.3,179.5 M563.3,181.5L563.3,181.5
	c0-6.2-3.9-10.6-10.7-10.6h-22.4v10.4c0,4.6,3.3,10.1,9.8,10.1h13.5C558,191.3,563.3,187.4,563.3,181.5L563.3,181.5z M559.6,140.1
	c0-3.3-2.5-9.9-11-9.8h-18.4v20.2h18.4C554.9,150.5,559.7,146.7,559.6,140.1L559.6,140.1z"/>
<path class="st0" d="M1122.7,208.2v-77.9h-27.2c-3.2,0.1-5.9-2.5-6-5.7v-17.9h92.1c3.3,0,6,2.7,6,6v17.6h-33.1v83.5h-25.9
	C1125.6,213.8,1123,211.4,1122.7,208.2"/>
<path class="st0" d="M981.9,208V106.7h63.5c17.6,0,32.1,6.4,32.1,34.2v72.8h-26c-3.3,0-5.9-2.6-6-5.8c0,0,0,0,0,0v-67.5
	c0-5.6-4.6-10.1-10.2-10.1h-21.9v83.5h-25.5C984.7,213.8,982,211.3,981.9,208"/>
<path class="st1" d="M195.9,190.6c-38.5,0-54.2-29.9-49.9-36.3c2.7-4,18.6,3.4,39.3,3.4c43.6,0,40.3-51.4,0.6-51.4
	c-41.1,0-62.7,29.7-62.7,59.9c0,44.8,43.7,72.4,93.4,59.5c0.9-0.2,4.4-0.8,6.1,2.2c1.7,3.2-0.3,6.3-2.5,8.1
	c-24.3,19.6-54.3,26.3-79.2,26.3C20.2,262.2,10.8,56,173.4,56C287,56,303.1,190.6,195.9,190.6"/>
</svg>
