<svg id="Layer_1" data-name="Layer 1" xmlns="http://www.w3.org/2000/svg" viewBox="0 0 1190.6 317.6"><defs><style>.cls-1{fill:#96d728;}.cls-2{fill:#363b45;}</style></defs><title>Монтажная область 1</title><path class="cls-1" d="M765,159.1A156.6,156.6,0,1,1,608.4,2.5,156.58,156.58,0,0,1,765,159.1h0"/><path class="cls-2" d="M644.9,190.6c-38.5,0-54.2-29.9-49.9-36.3,2.7-4,18.6,3.4,39.3,3.4,43.6,0,40.3-51.4.6-51.4-41.1,0-62.7,29.7-62.7,59.9,0,44.8,43.7,72.4,93.4,59.5.9-.2,4.4-.8,6.1,2.2,1.7,3.2-.3,6.3-2.5,8.1-24.3,19.6-54.3,26.3-79.2,26.3C469.2,262.2,459.8,56,622.4,56,736,56,752.1,190.6,644.9,190.6"/></svg>