<?xml version="1.0" encoding="utf-8"?>
<!-- Generator: Adobe Illustrator 22.0.1, SVG Export Plug-In . SVG Version: 6.00 Build 0)  -->
<svg version="1.1" id="Слой_1" xmlns="http://www.w3.org/2000/svg" xmlns:xlink="http://www.w3.org/1999/xlink" x="0" y="0"
	 viewBox="0 0 450.5 99.3" width="225.25mm" height="49.65mm" style="enable-background:new 0 0 450.5 99.3;" xml:space="preserve">
<style type="text/css">
	.st0{fill:url(#SVGID_1_);}
	.st1{fill:url(#SVGID_2_);}
	.st2{fill:url(#SVGID_3_);}
	.st3{fill:#21451E;}
	.st4{fill:url(#SVGID_4_);}
	.st5{fill:#FFFFFF;}
	.st6{fill:url(#SVGID_5_);}
	.st7{fill:#020002;}
	.st8{fill:url(#SVGID_6_);}
	.st9{fill:url(#SVGID_7_);}
	.st10{fill:#22381E;}
	.st11{fill:#1C3F07;}
</style>
<g>
	<g id="Слой_1_2_">
		<linearGradient id="SVGID_1_" gradientUnits="userSpaceOnUse" x1="111.9379" y1="30.7108" x2="444.6891" y2="30.7108">
			<stop  offset="0" style="stop-color:#35A300"/>
			<stop  offset="0.2466" style="stop-color:#43AE0C"/>
			<stop  offset="0.7009" style="stop-color:#58BF1E"/>
			<stop  offset="1" style="stop-color:#60C524"/>
		</linearGradient>
		<path class="st0" d="M145.7,10l-5,5.3c-2.2-2.4-5.3-3.6-8.4-3.6c-5.7,0-9.8,4.1-9.8,18.9s2.6,18.9,8.1,18.9c1.9,0,3.8-0.7,5.5-1.7
			V34.7h-5.3l-1-7.4H146v25.2c-4.3,3.4-9.6,5-15.1,5c-12.7,0-18.9-8.1-18.9-26.8S120.8,4,131.8,4C137.1,3.8,142.1,5.9,145.7,10z
			 M166.3,56H156V5h10.3V56z M208.2,21.3c0,11.5-6.7,17-18,17h-2.9V56h-10.3V5h12.2C201.5,5,208,10.5,208.2,21.3L208.2,21.3z
			 M197.7,21.3c0-6.2-2.4-8.9-8.1-8.9h-2.2v18.2h1.9C195.1,30.8,197.7,28.4,197.7,21.3L197.7,21.3z M240.6,12.4h-14.4v13.9h12.7V34
			h-12.7v14.6h15.3v7.7h-25.6V5h25.6L240.6,12.4z M272.7,56l-8.6-20.4h-3.8V56h-10.3V5h12.7c12.7,0,18.4,5.5,18.4,15.1
			c0.5,5.7-2.6,11-7.9,13.7L283.7,56L272.7,56z M270.5,20.1c0-5.3-2.2-7.7-7.9-7.7h-2.2v16.1h2.6C268.4,28.4,270.5,25.8,270.5,20.1
			L270.5,20.1z M333.5,56h-9.8L323,34.9c-0.2-7.4-0.5-14.9-0.2-20.6l-6.2,36.2h-9.6l-6.7-35.9c0.2,6.9,0.2,13.7,0,20.8l-0.7,20.8
			h-9.6l3.1-51h12.7l6,35.5l5.5-35.5h12.9L333.5,56z M364.7,44.3h-12L350.5,56h-10.1l12.5-51h12.2l12.2,51h-10.3L364.7,44.3z
			 M363.2,36.8l-4.6-24l-4.6,24H363.2z M394.9,47.6h16.1l-1,8.4h-25.2V5h10.3L394.9,47.6z M428.6,47.6h16.1l-1,8.4h-25.4V5h10.3
			V47.6z"/>
		<g>

				<radialGradient id="SVGID_2_" cx="24.9284" cy="972.5118" r="84.7965" gradientTransform="matrix(1 0 0 1 0 -956)" gradientUnits="userSpaceOnUse">
				<stop  offset="0" style="stop-color:#DDE45A"/>
				<stop  offset="1.000000e-02" style="stop-color:#D9E45B"/>
				<stop  offset="0.13" style="stop-color:#ACD254"/>
				<stop  offset="0.23" style="stop-color:#8DC64C"/>
				<stop  offset="0.32" style="stop-color:#79BD47"/>
				<stop  offset="0.38" style="stop-color:#73BA4A"/>
				<stop  offset="0.72" style="stop-color:#58A847"/>
				<stop  offset="1" style="stop-color:#90C748"/>
			</radialGradient>
			<circle class="st1" cx="46.5" cy="47.4" r="45"/>
			<g>

					<radialGradient id="SVGID_3_" cx="32.2525" cy="1091.1769" r="13.5621" gradientTransform="matrix(1 0 0 0.9128 0 -966.2712)" gradientUnits="userSpaceOnUse">
					<stop  offset="0.7315" style="stop-color:#FFFFFF"/>
					<stop  offset="0.7878" style="stop-color:#F6F9FA"/>
					<stop  offset="0.8853" style="stop-color:#DAF0F5"/>
					<stop  offset="1" style="stop-color:#B7DFE9"/>
				</radialGradient>
				<path class="st2" d="M22.3,38c-5.7-12,0.5-22.5,10.8-21.8c12.9,1,16.8,23-0.2,27.3C28.8,39.7,25,38,22.3,38z"/>
				<g>
					<path class="st3" d="M22.1,38.5c-0.5-0.7-0.7-1.4-1.2-2.2c-0.2-0.7-0.5-1.4-0.7-2.2c-0.5-1.4-0.7-2.9-0.7-4.3
						c-0.2-2.9,0.5-6,1.9-8.9c1.4-2.6,4.3-4.8,7.2-5.5c2.9-1,6.2-0.7,9.1,0.7c2.9,1.4,5,3.8,6.2,6.7c1.2,2.9,1.7,6,1.2,9.1
						s-1.9,6-4.1,8.1c-2.2,2.2-5,3.4-7.9,4.1c-0.2,0-0.7,0-0.7-0.2l0,0c-1.4-1.2-2.9-2.6-4.6-3.6c-0.7-0.5-1.7-1-2.6-1.2
						c-0.5-0.2-1-0.2-1.4-0.5C23.3,38.7,23.1,38.7,22.1,38.5L22.1,38.5z M22.8,37.5c0.2,0,0.7,0,1.2,0s1,0.2,1.4,0.5
						c1,0.2,1.9,0.7,2.9,1.2c1.9,1,3.6,2.2,5,3.6l-0.7-0.2c2.6-0.7,5-1.9,6.9-3.8c1.9-1.9,3.1-4.3,3.4-6.9c0.7-5.3-1.4-11-6.2-13.4
						c-4.6-2.4-11-0.7-13.7,3.8c-1.4,2.2-2.2,5-1.9,7.7c0,1.4,0.2,2.6,0.5,4.1c0.2,0.7,0.5,1.4,0.5,1.9
						C22.3,36.3,22.6,36.8,22.8,37.5L22.8,37.5z"/>
				</g>
			</g>
			<g id="XMLID_1_">
				<g>

						<linearGradient id="SVGID_4_" gradientUnits="userSpaceOnUse" x1="53.0179" y1="1017.6271" x2="54.1644" y2="1031.9866" gradientTransform="matrix(1 0 0 1 0 -956)">
						<stop  offset="0" style="stop-color:#15361D"/>
						<stop  offset="1" style="stop-color:#2E522D"/>
					</linearGradient>
					<path class="st4" d="M75.8,45.7L75.8,45.7c-10.8,21.3-40,16.5-44.6,6l0,0c-2.2-0.2-3.8-1.7-5.7-2.4l-3.6-1.2
						c2.9,6.5,9.1,15.1,14.9,19.6l0,0c7.2,6,15.8,9.1,22.5,6.7c1.9-0.7,3.6-1.9,5-3.4l0,0c7.2-7.2,9.8-22.3,17.2-29.2
						C79.6,43.1,77.7,44.5,75.8,45.7z"/>
					<path class="st5" d="M75.8,45.7C65,67,35.8,62,31.2,51.7l0,0C44.9,54.8,64,51.9,75.8,45.7z"/>
				</g>
				<g>
					<path class="st3" d="M17.8,53.4c0-1.2,0.5-2.6,1-3.8c0.7-1.2,1.7-2.2,3.1-2.9c1.2-0.5,2.6-1,4.1-1c1.2,0,2.6,0.2,3.8,0.7
						c0.2,0,0.5,0.5,0.5,0.7c0,0.2-0.2,0.5-0.5,0.5c-2.4,0.2-4.8,0.2-6.5,1.2c-1.9,0.7-2.9,2.6-3.8,4.8c-0.2,0.2-0.5,0.5-1,0.5
						C17.8,53.8,17.8,53.6,17.8,53.4z"/>
					<path class="st3" d="M25.2,49c3.8,1.7,8.4,2.2,12.7,2.4s8.6,0.2,12.7-0.2c8.4-1,16.8-3.1,24.4-6.7l-0.7,1l0,0l0,0
						c0-0.5,0.2-0.7,0.7-1c1-0.5,1.9-1,2.9-1.7l1.4-1l1.2-1l0,0c0.2-0.2,0.7-0.2,1,0.2c0.2,0.2,0.2,0.7,0,1c-0.5,0.5-1,1-1.2,1.2
						c-0.5,0.5-1,0.7-1.4,1.2c-1,0.7-1.9,1.4-2.9,1.9l0.7-1l0,0c0,0.5-0.2,0.7-0.5,1l0,0c-3.8,2.2-8.1,3.6-12.2,4.8
						c-4.3,1.2-8.6,1.9-12.9,2.4s-8.9,0.5-13.2,0s-9.1-1.9-13.2-4.6c-0.5-0.2-0.2,0.5,0,0C24.7,48.8,25,49,25.2,49z"/>
					<path class="st3" d="M22.6,47.6c0.7,1.9,1.7,3.8,2.6,5.5c1,1.7,2.2,3.4,3.4,5c2.4,3.4,5.3,6.2,8.6,8.6l-0.7-0.2l0,0
						c0.2,0,0.5,0,0.7,0.2l0,0c3.8,3.1,8.4,5.7,12.9,6.7c2.4,0.5,4.8,0.7,7.2,0c2.4-0.5,4.3-1.7,6-3.4l-0.2,0.7l0,0
						c0-0.2,0.2-0.7,0.2-0.7c2.2-2.2,3.8-4.8,5.3-7.7s2.9-5.7,4.1-8.6c1.4-2.9,2.9-5.7,4.8-8.6c1.9-2.6,4.3-5.3,7.4-6.7
						c0.2-0.2,0.7,0,0.7,0.2c0.2,0.2,0,0.7-0.2,0.7c-2.9,1.4-4.8,3.8-6.5,6.5c-1.7,2.6-3.1,5.5-4.3,8.4c-1.2,2.9-2.6,6-4.1,8.9
						s-3.1,5.7-5.5,8.4l0.2-0.7l0,0c0,0.2,0,0.5-0.2,0.7l0,0c-1.9,1.9-4.3,3.6-7.2,4.1c-2.6,0.7-5.5,0.5-8.1-0.2
						c-2.6-0.2-5-1.2-7.4-2.4c-2.4-1.2-4.6-2.6-6.5-4.3l0.7,0.2l0,0l0,0c-0.2,0-0.5,0-0.7-0.2c-3.4-2.6-6.2-5.7-8.6-9.3
						c-1.2-1.7-2.4-3.6-3.4-5.5c-1-1.9-1.7-3.8-2.4-5.7c-0.2-0.2,0-0.7,0.5-1C22.1,47.1,22.3,47.1,22.6,47.6L22.6,47.6z"/>
				</g>
			</g>
			<path class="st3" d="M78.9,38c0.5-0.2,1-0.2,1.4-0.5c0.5,0,1-0.2,1.4-0.2c1,0,1.9,0.2,3.1,0.5c1,0.5,1.9,1,2.6,1.7
				c0.7,0.7,1.4,1.4,1.7,2.6c0,0.2,0,0.7-0.5,0.7c-0.2,0-0.5,0-0.5-0.2l0,0c-0.5-0.5-1.2-1-1.9-1.4c-0.7-0.5-1.4-0.7-2.2-1
				c-1.4-0.5-3.1-0.7-5-0.7l0,0c-0.5,0-0.7-0.5-0.7-0.7C78.6,38.3,78.6,38,78.9,38z"/>
			<path class="st3" d="M11.1,38.7c3.6-1.7,7.7-2.4,11.7-1.9c1.9,0.2,4.1,1,5.7,2.2c1.7,1,3.4,2.4,4.6,4.1c0.2,0.2,0.2,0.7,0,1
				s-0.5,0.2-0.7,0c-1.4-1.2-3.1-2.2-4.6-3.1c-1.7-0.7-3.4-1.4-5.3-1.4c-3.6-0.5-7.4,0-11,0.7c-0.5,0-0.7-0.2-0.7-0.5
				C10.6,39.2,10.8,38.7,11.1,38.7z"/>
			<g>

					<linearGradient id="SVGID_5_" gradientUnits="userSpaceOnUse" x1="30.7697" y1="983.5154" x2="31.2277" y2="996.2941" gradientTransform="matrix(1 0 0 1 0 -956)">
					<stop  offset="0" style="stop-color:#539731"/>
					<stop  offset="0.1686" style="stop-color:#5BA331"/>
					<stop  offset="0.4611" style="stop-color:#69B33E"/>
					<stop  offset="0.8402" style="stop-color:#7BBE47"/>
					<stop  offset="1" style="stop-color:#87C44C"/>
				</linearGradient>
				<ellipse class="st6" cx="31" cy="33" rx="5.7" ry="6.2"/>
				<path class="st7" d="M29.5,38.3c-1.4,0-2.6-1.7-2.6-3.6c0-1.9,1-3.6,2.6-3.6c1.4,0,2.6,1.7,2.6,3.6C32.2,36.6,31,38.3,29.5,38.3
					z"/>
				<ellipse class="st5" cx="28.6" cy="36.8" rx="1" ry="1.2"/>
				<ellipse class="st5" cx="31.7" cy="31.6" rx="1.4" ry="1.7"/>
			</g>
			<g>

					<radialGradient id="SVGID_6_" cx="-1219.2927" cy="1087.7534" r="11.9338" gradientTransform="matrix(-1 0 0 0.9128 -1155.3285 -966.2712)" gradientUnits="userSpaceOnUse">
					<stop  offset="0.7315" style="stop-color:#FFFFFF"/>
					<stop  offset="0.7878" style="stop-color:#F6F9FA"/>
					<stop  offset="0.8853" style="stop-color:#DAF0F5"/>
					<stop  offset="1" style="stop-color:#B7DFE9"/>
				</radialGradient>
				<path class="st8" d="M72.2,33c5.7-8.1,0.5-18.9-9.3-18.2c-11.7,0.7-14.4,22.5,2.4,23.7C67.1,35.4,68.6,34.4,72.2,33z"/>
				<g>
					<path class="st3" d="M71.7,32.5L71.7,32.5l0.7-1.4c0.2-0.5,0.5-1.2,0.7-1.7c0.2-1.2,0.5-2.4,0.5-3.6c0-2.4-1-4.8-2.4-6.5
						c-2.6-3.8-8.6-4.6-12.2-2.2c-3.8,2.6-5.3,7.9-4.1,12.5c0.5,2.2,1.9,4.3,3.8,5.7c1.9,1.4,4.3,1.9,6.7,2.4l-0.7,0.5
						c1-1.2,1.9-2.6,3.4-3.6c0.7-0.5,1.4-1,2.2-1.2C70.5,33,71.2,32.5,71.7,32.5z M72.6,33.2L72.6,33.2c-1,0.5-1.7,0.7-2.4,1.2
						c-0.7,0.2-1.2,0.7-1.7,1.2c-1.2,1-1.9,2.2-2.6,3.4l0,0c-0.2,0.2-0.5,0.5-0.7,0.5c-2.6-0.2-5.5-0.7-7.7-2.4
						c-2.4-1.7-4.1-4.1-4.8-6.7c-1.4-5.3,0.2-11.7,5-14.9c5-3.1,11.7-1.9,15.3,2.6c1.7,2.2,2.6,5,2.6,7.7c0,1.4-0.2,2.6-0.7,4.1
						c-0.2,0.7-0.5,1.2-0.7,1.9C73.6,32.3,73.1,32.8,72.6,33.2z"/>
				</g>
			</g>
			<path class="st3" d="M80.3,32.3c-2.9,0.5-5.5,0.7-8.1,1.9c-2.6,1-4.6,2.6-6.5,4.6c-0.2,0.2-0.7,0.2-1,0s-0.2-0.5-0.2-0.7
				c0.5-1.4,1.4-2.6,2.6-3.8c1.2-1,2.6-1.9,4.1-2.4c2.9-1.2,6-1.4,8.9-1c0.5,0,0.7,0.5,0.5,0.7C80.8,32,80.6,32.3,80.3,32.3z"/>
			<g>

					<linearGradient id="SVGID_7_" gradientUnits="userSpaceOnUse" x1="-1220.4786" y1="980.7621" x2="-1220.0858" y2="991.7211" gradientTransform="matrix(-1 0 0 1 -1155.3285 -956)">
					<stop  offset="0" style="stop-color:#539731"/>
					<stop  offset="0.1686" style="stop-color:#5BA331"/>
					<stop  offset="0.4611" style="stop-color:#69B33E"/>
					<stop  offset="0.8402" style="stop-color:#7BBE47"/>
					<stop  offset="1" style="stop-color:#87C44C"/>
				</linearGradient>
				<ellipse class="st9" cx="65" cy="29.4" rx="5" ry="5.5"/>
				<path class="st7" d="M64,33.5c1.2,0,2.4-1.4,2.4-3.1s-1.2-3.1-2.4-3.1s-2.4,1.4-2.4,3.1S62.8,33.5,64,33.5z"/>
				<ellipse class="st5" cx="63.3" cy="32.3" rx="0.7" ry="1"/>
				<ellipse class="st5" cx="66.4" cy="27.7" rx="1.2" ry="1.4"/>
			</g>
			<path class="st10" d="M16.4,19.3c0-2.2,0.2-4.1,1-6.2c1-1.9,2.2-3.8,4.1-5.5c1.9-1.4,4.3-2.2,6.5-2.2s4.6,0.5,6.2,1.7
				c0.5,0.5,0.7,1.2,0.5,1.7c-0.2,0.5-0.7,0.7-1.2,0.7l0,0c-3.6-0.2-6.7,0.2-9.1,2.2c-1.2,0.7-2.2,1.9-2.9,3.4s-1.4,3.1-2.2,4.8l0,0
				c-0.5,0.7-1.2,1-1.9,0.7C16.8,20.3,16.6,19.8,16.4,19.3z"/>
			<path class="st10" d="M56.6,8.8c0.7-2.2,3.1-3.8,5.3-4.3c2.4-0.5,4.8,0,6.7,1c4.1,1.9,6.7,5.5,7.7,9.3c0.2,0.7-0.2,1.4-1,1.4
				c-0.5,0-1,0-1.2-0.2l0,0c-1.2-1.4-2.4-2.6-3.6-3.6s-2.6-1.9-4.1-2.4c-1.4-0.7-2.9-1-4.1-1s-2.4,0.5-3.6,1.4l0,0
				c-0.5,0.5-1.4,0.5-1.9-0.2C56.4,9.8,56.4,9,56.6,8.8z"/>
		</g>
	</g>
</g>
<g>
	<path class="st11" d="M123.4,78.5H118v14.4h-4.8v-18h15v18h-4.8V78.5z"/>
	<path class="st11" d="M149.6,83.8c0,5.7-3.2,9.5-8.6,9.5c-5.3,0-8.6-3.6-8.6-9.5c0-5.7,3.2-9.5,8.6-9.5
		C146.4,74.3,149.6,77.9,149.6,83.8z M137.5,83.8c0,4.1,1.2,5.9,3.6,5.9c2.4,0,3.6-1.8,3.6-5.9c0-4.1-1.2-5.9-3.5-5.9
		C138.7,77.9,137.5,79.7,137.5,83.8z"/>
	<path class="st11" d="M167.7,74.9v18H163V86c-1.3,1.1-3.1,1.7-5.1,1.7c-3.5,0-5.2-2.1-5.2-5.5v-7.3h4.8v6.7c0,1.9,0.7,2.5,2.1,2.5
		c1.2,0,2.6-0.5,3.4-1.3v-7.9H167.7z"/>
	<path class="st11" d="M186,78.5H181v14.4h-4.8V78.5h-5.4v-3.6h15.8L186,78.5z"/>
	<path class="st11" d="M204.7,83.8c0,5.7-3.2,9.5-8.6,9.5c-5.3,0-8.6-3.6-8.6-9.5c0-5.7,3.2-9.5,8.6-9.5
		C201.5,74.3,204.7,77.9,204.7,83.8z M192.5,83.8c0,4.1,1.2,5.9,3.6,5.9c2.4,0,3.6-1.8,3.6-5.9c0-4.1-1.2-5.9-3.5-5.9
		C193.7,77.9,192.5,79.7,192.5,83.8z"/>
	<path class="st11" d="M224.1,87.3c0,3.9-3.3,5.5-7.9,5.5h-7.3V75.1c2.4-0.5,4.6-0.7,6.8-0.7c4.6,0,7.6,1.6,7.6,4.9
		c0,2-1.3,3.4-3.7,3.8C222.7,83.3,224.1,84.9,224.1,87.3z M213.7,77.6v4.3h2.2c1.6,0,2.6-0.6,2.6-2.2c0-1.5-1-2.2-2.9-2.2
		C214.9,77.5,214.4,77.5,213.7,77.6z M219.2,87c0-1.6-0.9-2.3-3-2.3h-2.4v4.9h2.4C217.9,89.6,219.2,88.9,219.2,87z"/>
	<path class="st11" d="M244.2,83.8c0,5.7-3.2,9.5-8.6,9.5c-5.3,0-8.6-3.6-8.6-9.5c0-5.7,3.2-9.5,8.6-9.5
		C241,74.3,244.2,77.9,244.2,83.8z M232,83.8c0,4.1,1.2,5.9,3.6,5.9s3.6-1.8,3.6-5.9c0-4.1-1.2-5.9-3.5-5.9
		C233.3,77.9,232,79.7,232,83.8z"/>
	<path class="st11" d="M263.5,85.3h-11.2c0.3,3.5,2,4.5,4.3,4.5c1.5,0,2.8-0.5,4.4-1.6l2,2.7c-1.8,1.4-4,2.4-6.8,2.4
		c-5.7,0-8.7-3.8-8.7-9.4c0-5.4,2.9-9.6,8.1-9.6c5.1,0,8.1,3.4,8.1,9.1C263.6,84.1,263.5,84.8,263.5,85.3z M258.8,82.1
		c0-2.7-0.9-4.5-3.2-4.5c-1.9,0-3.1,1.3-3.3,4.7h6.5V82.1z"/>
	<path class="st11" d="M292.6,83.8c0,5.7-3.2,9.5-8.6,9.5c-5.3,0-8.6-3.6-8.6-9.5c0-5.7,3.2-9.5,8.6-9.5
		C289.4,74.3,292.6,77.9,292.6,83.8z M280.4,83.8c0,4.1,1.2,5.9,3.6,5.9c2.4,0,3.6-1.8,3.6-5.9c0-4.1-1.2-5.9-3.5-5.9
		C281.6,77.9,280.4,79.7,280.4,83.8z"/>
	<path class="st11" d="M308.9,78.5h-5.1v14.4h-4.8V78.5h-5.4v-3.6h15.8L308.9,78.5z"/>
	<path class="st11" d="M326.5,89.2v9.1h-3.4l-0.6-5.5h-10.2l-0.6,5.5h-3.4v-9.1h1.1c1.1-0.8,1.9-1.8,2.4-8.1l0.5-6.2h12.3v14.4
		H326.5z M320.1,78.1h-3.6l-0.2,2.5c-0.4,5.6-1.2,7.4-3.1,8.6h7V78.1z"/>
	<path class="st11" d="M345,85.3h-11.2c0.3,3.5,2,4.5,4.3,4.5c1.5,0,2.8-0.5,4.4-1.6l2,2.7c-1.8,1.4-4,2.4-6.8,2.4
		c-5.7,0-8.7-3.8-8.7-9.4c0-5.4,2.9-9.6,8.1-9.6c5.1,0,8.1,3.4,8.1,9.1C345.1,84.1,345,84.8,345,85.3z M340.3,82.1
		c0-2.7-0.9-4.5-3.2-4.5c-1.9,0-3.1,1.3-3.3,4.7h6.5V82.1z"/>
	<path class="st11" d="M363.4,74.9v18h-4.8V78.5h-3.9l-0.4,4.4c-0.6,7-1.2,9.3-6,10.4l-1.1-3.5c2.1-0.9,2.3-1.6,2.7-7.2l0.6-7.7
		H363.4z"/>
	<path class="st11" d="M383.8,85.3h-11.2c0.3,3.5,2,4.5,4.3,4.5c1.5,0,2.8-0.5,4.4-1.6l2,2.7c-1.8,1.4-4,2.4-6.8,2.4
		c-5.7,0-8.7-3.8-8.7-9.4c0-5.4,2.9-9.6,8.1-9.6c5.1,0,8.1,3.4,8.1,9.1C383.9,84.1,383.8,84.8,383.8,85.3z M379.1,82.1
		c0-2.7-0.9-4.5-3.2-4.5c-1.9,0-3.1,1.3-3.3,4.7h6.5V82.1z"/>
	<path class="st11" d="M398.3,85.5h-5.5v7.3h-4.8v-18h4.8v7h5.5v-7h4.8v18h-4.8V85.5z"/>
	<path class="st11" d="M423.7,92.8h-4.6V86c0-2.9,0.4-5.3,0.6-6.4l-6.3,13.2h-5v-18h4.6v6.9c0,2.6-0.3,5.2-0.6,6.3l6.2-13.2h5.1
		V92.8z"/>
	<path class="st11" d="M444,85.3h-11.2c0.3,3.5,2,4.5,4.3,4.5c1.5,0,2.8-0.5,4.4-1.6l2,2.7c-1.8,1.4-4,2.4-6.8,2.4
		c-5.7,0-8.7-3.8-8.7-9.4c0-5.4,2.9-9.6,8.1-9.6c5.1,0,8.1,3.4,8.1,9.1C444.1,84.1,444.1,84.8,444,85.3z M439.4,82.1
		c0-2.7-0.9-4.5-3.2-4.5c-1.9,0-3.1,1.3-3.3,4.7h6.5V82.1z"/>
</g>
</svg>
