<?xml version="1.0" encoding="utf-8"?>
<!-- Generator: Adobe Illustrator 21.1.0, SVG Export Plug-In . SVG Version: 6.00 Build 0)  -->
<svg version="1.1" id="Layer_1" xmlns="http://www.w3.org/2000/svg" xmlns:xlink="http://www.w3.org/1999/xlink" x="0px" y="0px"
	 viewBox="0 0 1190.6 220" style="enable-background:new 0 0 1190.6 220;" xml:space="preserve" width="999" height="181">
<style type="text/css">
	.st0{fill:#191F23;}
	.st1{fill:#F7D100;}
</style>
<title>logo</title>
<path class="st0" d="M27.2,184.7H9.6v10.9h9.1c3.8,0,6.8,1,8.9,2.9c2.2,2,3.3,4.8,3.2,7.8c0.1,3-1,5.8-3.2,7.9c-2.2,2-5.1,3-8.8,3
	h-14v-36.4h22.4V184.7z M9.6,199.6v13.7h8.8c2,0.1,4-0.6,5.6-1.9c1.4-1.3,2.1-3.2,2-5.1c0.1-1.8-0.6-3.6-1.9-4.9
	c-1.5-1.3-3.5-1.9-5.4-1.8L9.6,199.6z"/>
<path class="st0" d="M52.1,195.7h9.1c3.8,0,6.8,1,8.9,2.9c2.2,2,3.3,4.8,3.2,7.8c0.1,3-1.1,5.9-3.3,7.9c-2.2,2-5.1,3-8.8,3H47.3
	v-36.4h4.8V195.7z M52.1,199.6v13.7h8.8c2,0.1,4-0.6,5.6-1.9c1.4-1.3,2.1-3.2,2-5.1c0.1-1.8-0.6-3.6-1.9-4.9
	c-1.5-1.3-3.5-1.9-5.5-1.8L52.1,199.6z M82.5,217.3h-4.8v-36.5h4.8V217.3z"/>
<path class="st0" d="M125.6,184.7h-11.7v32.5h-4.8v-32.5H97.4v-3.9h28.2L125.6,184.7z"/>
<path class="st0" d="M168.1,200.2c0.1,3.2-0.5,6.4-1.8,9.4c-1.1,2.5-2.8,4.6-5.1,6.1c-6.5,4.2-15.3,2.4-19.5-4.1
	c-0.4-0.6-0.7-1.2-1-1.9c-1.3-2.9-1.9-6-1.9-9.1v-2.6c-0.1-3.2,0.6-6.4,1.8-9.3c2.2-5.2,7.2-8.5,12.8-8.3c2.7-0.1,5.4,0.7,7.7,2.1
	c2.3,1.5,4.1,3.6,5.1,6.1c1.3,3,1.9,6.1,1.8,9.4V200.2z M163.3,197.8c0-4.3-0.9-7.7-2.6-10c-1.7-2.3-4.4-3.6-7.3-3.5
	c-2.8-0.1-5.5,1.2-7.2,3.5c-1.7,2.3-2.6,5.5-2.7,9.6v2.7c0,4.2,0.9,7.5,2.6,9.9c3.1,4,8.9,4.8,13,1.7c0.6-0.4,1.1-0.9,1.5-1.5
	c1.7-2.3,2.6-5.5,2.6-9.7L163.3,197.8z"/>
<path class="st0" d="M185.1,217.3v-36.5H197c4,0,6.9,0.8,8.9,2.4s3,4.1,3,7.3c0,1.6-0.5,3.2-1.4,4.5c-1,1.3-2.4,2.4-4,3
	c1.9,0.5,3.5,1.6,4.7,3.1c1.2,1.6,1.8,3.5,1.7,5.5c0.1,2.9-1,5.7-3.2,7.7c-2.1,1.9-5.1,2.8-9,2.8L185.1,217.3z M189.9,196.3h7.3
	c1.8,0.1,3.6-0.5,5-1.6c1.3-1.1,2-2.6,1.9-4.3c0.2-1.7-0.5-3.3-1.8-4.4c-1.6-1-3.5-1.5-5.3-1.4h-7.1L189.9,196.3z M189.9,200.2v13.1
	h7.9c1.9,0.1,3.8-0.5,5.3-1.7c1.3-1.2,2-3,1.9-4.8c0-4.4-2.4-6.6-7.2-6.6L189.9,200.2z"/>
<path class="st0" d="M246.9,207.7h-15.3l-3.4,9.5h-5l13.9-36.5h4.2l13.9,36.5h-4.9L246.9,207.7z M233.1,203.8h12.4l-6.2-17
	L233.1,203.8z"/>
<path class="st0" d="M289,217.3v-14.2h-8.4l-7.5,14.2h-5.1l8.5-15.5c-4.7-1.9-7.1-5.2-7.1-9.9c-0.2-3.1,1.1-6.1,3.4-8.1
	c2.3-1.9,5.4-2.9,9.5-2.9h11.6v36.5H289z M274.1,191.8c-0.1,2,0.7,3.9,2.1,5.3c1.6,1.4,3.6,2.1,5.7,2h7.1v-14.4h-6.8
	c-2.2-0.2-4.3,0.5-6,1.9C274.8,187.9,274,189.8,274.1,191.8L274.1,191.8z"/>
<path class="st0" d="M359,184.7h-11.7v32.5h-4.8v-32.5h-11.7v-3.9H359V184.7z"/>
<path class="st0" d="M394.8,200.4H379v12.9h18.4v3.9h-23.2v-36.5h22.9v3.9H379v11.8h15.8L394.8,200.4z"/>
<path class="st0" d="M424.9,194.8l8.7-14h5.7l-11.5,18.1l11.8,18.4h-5.7l-9-14.2l-9,14.2h-5.7l11.8-18.4l-11.5-18.1h5.6L424.9,194.8
	z"/>
<path class="st0" d="M483,217.3h-4.8v-16.9h-18.4v16.9H455v-36.5h4.8v15.7h18.4v-15.7h4.9V217.3z"/>
<path class="st0" d="M524.3,180.8h4.8v36.5h-4.8v-28.1l-18,28.1h-4.8v-36.5h4.8v28.1L524.3,180.8z"/>
<path class="st0" d="M557,200.9h-4.4v16.4h-4.8v-36.5h4.8v16.1h3.8l12.7-16.1h6l-13.9,17.7l15,18.8h-5.9L557,200.9z"/>
<path class="st0" d="M610.4,207.7h-15.3l-3.4,9.5h-5l13.9-36.5h4.2l14,36.5h-4.9L610.4,207.7z M596.6,203.8H609l-6.2-17L596.6,203.8
	z"/>
<path class="st0" d="M678.9,180.8h4.8v36.5h-4.8v-28.1l-18,28.1h-4.8v-36.5h4.9v28.1L678.9,180.8z"/>
<path class="st0" d="M729,205.7c0.5,3,1.4,5.1,2.8,6.3c1.8,1.3,3.9,2,6.2,1.8c2.7,0.1,5.3-1.2,6.8-3.4c1.7-2.3,2.5-5.4,2.6-9.4H733
	v-3.9h14.4c0-4-0.9-7.1-2.6-9.4c-1.7-2.3-4.4-3.6-7.3-3.5c-2.1-0.1-4.2,0.6-5.8,2c-1.4,1.3-2.3,3.4-2.7,6.3h-4.8
	c0.2-3.4,1.6-6.6,4.1-9c2.6-2.2,5.9-3.4,9.3-3.2c2.7-0.1,5.4,0.7,7.8,2.1c2.3,1.4,4.1,3.5,5.1,6c1.2,2.8,1.8,5.8,1.8,8.9v3.6
	c0.1,3.1-0.5,6.1-1.8,8.9c-2.1,5-7.1,8.1-12.5,8c-4,0-7.2-1.1-9.5-3.1c-2.5-2.3-4-5.5-4.3-8.9L729,205.7z"/>
<path class="st0" d="M795.9,180.8v36.5h-4.8v-32.5H778l-0.7,14.5c-0.1,3.7-0.6,7.4-1.5,10.9c-0.5,2.1-1.7,4-3.3,5.4
	c-1.7,1.2-3.7,1.8-5.8,1.8h-1.6v-3.9h1c1.3,0,2.6-0.6,3.6-1.5c1-1.2,1.6-2.7,1.9-4.3c0.5-3,0.9-6,0.9-9l0.8-17.7L795.9,180.8z"/>
<path class="st0" d="M834.9,200.4h-15.8v12.9h18.4v3.9h-23.2v-36.5h22.9v3.9h-18.1v11.8H835L834.9,200.4z"/>
<path class="st0" d="M862.7,200.9h-4.4v16.4h-4.8v-36.5h4.8v16.1h3.7l12.7-16.1h6l-13.9,17.7l15,18.8h-5.9L862.7,200.9z"/>
<path class="st0" d="M921.1,184.7h-11.7v32.5h-4.8v-32.5h-11.7v-3.9h28.2L921.1,184.7z"/>
<path class="st0" d="M941.1,203v14.3h-4.8v-36.5h13.5c4,0,7.1,1,9.4,3.1c2.3,2.1,3.5,5,3.4,8.1c0,3.5-1.1,6.3-3.3,8.2
	c-2.2,1.9-5.4,2.9-9.5,2.9L941.1,203z M941.1,199.1h8.6c2.1,0.1,4.2-0.5,5.9-1.8c1.4-1.4,2.2-3.3,2.1-5.3c0.1-2-0.7-3.9-2-5.2
	c-1.6-1.4-3.6-2.1-5.6-2h-8.9V199.1z"/>
<path class="st0" d="M1006.4,200.2c0.1,3.2-0.5,6.4-1.8,9.4c-1.1,2.5-2.8,4.6-5.1,6.1c-6.5,4.2-15.3,2.4-19.5-4.1
	c-0.4-0.6-0.7-1.2-1-1.9c-1.3-2.9-1.9-6-1.9-9.1v-2.6c-0.1-3.2,0.6-6.4,1.8-9.3c2.2-5.2,7.2-8.5,12.8-8.3c2.7-0.1,5.4,0.7,7.7,2.1
	c2.3,1.5,4.1,3.6,5.2,6.1c1.3,3,1.9,6.1,1.8,9.4V200.2z M1001.7,197.8c0-4.3-0.9-7.7-2.6-10c-1.7-2.3-4.4-3.6-7.3-3.5
	c-2.8-0.1-5.5,1.2-7.2,3.5c-1.7,2.3-2.6,5.5-2.7,9.6v2.7c0,4.2,0.9,7.5,2.6,9.9c3.1,4,8.9,4.8,13,1.7c0.6-0.4,1.1-0.9,1.5-1.5
	c1.7-2.3,2.6-5.5,2.6-9.7L1001.7,197.8z"/>
<path class="st0" d="M1051.4,217.3h-4.8v-16.9h-18.4v16.9h-4.8v-36.5h4.8v15.7h18.4v-15.7h4.8L1051.4,217.3z"/>
<path class="st0" d="M1092.7,180.8h4.8v36.5h-4.8v-28.1l-18,28.1h-4.8v-36.5h4.8v28.1L1092.7,180.8z"/>
<path class="st0" d="M1125.5,200.9h-4.5v16.4h-4.8v-36.5h4.8v16.1h3.8l12.7-16.1h6l-13.9,17.7l15,18.8h-5.9L1125.5,200.9z"/>
<path class="st0" d="M1178.8,207.7h-15.3l-3.4,9.5h-5l13.9-36.5h4.2l13.9,36.5h-4.9L1178.8,207.7z M1165,203.8h12.4l-6.2-17
	L1165,203.8z"/>
<path class="st1" d="M4.5,30.4V9c0-2.5,1.2-3.7,3.7-3.7h91.3c2.5,0,3.7,1.2,3.7,3.7v21.4c0,2.5-1.2,3.7-3.7,3.7H69.7v92.4
	c0,2.5-1.3,3.7-3.9,3.7H41.5c-2.5,0-3.7-1.2-3.7-3.7V34.1H8.2C5.7,34.1,4.5,32.9,4.5,30.4z"/>
<path class="st1" d="M123.4,126.6V9c0-2.5,1.2-3.7,3.7-3.7h83.7c2.5,0,3.7,1.2,3.7,3.7v21.6c0,2.5-1.2,3.7-3.7,3.7h-54.9V55h41.8
	c2.7,0,4,1.3,4,3.9v17.3c0,2.5-1.4,3.7-4,3.7h-41.8v21.5h56.6c2.5,0,3.7,1.2,3.7,3.7v21.4c0,2.5-1.2,3.7-3.7,3.7h-85.4
	C124.6,130.3,123.4,129,123.4,126.6z"/>
<path class="st1" d="M340.9,9l-38.4,57.4l40.2,60.1c0.7,1.1,0.8,2,0.4,2.7c-0.6,0.8-1.5,1.1-2.5,1H312c-2,0-3.7-1.2-5.2-3.7
	l-22.4-33.3l-22.4,33.3c-0.7,1.1-1.5,2.2-2.5,3c-0.9,0.5-1.9,0.7-2.9,0.7h-28.5c-0.9,0.1-1.8-0.2-2.4-0.9c-0.4-0.6-0.3-1.5,0.4-2.8
	l40.2-60.1L228.3,9c-0.6-0.7-0.9-1.7-0.7-2.6c0.2-0.7,1-1.1,2.2-1.1h29.1c1-0.1,2,0.2,2.9,0.8c0.9,0.8,1.7,1.8,2.4,2.9l20.4,30.3
	L304.7,9c0.6-1.1,1.4-2,2.4-2.8c0.9-0.6,1.9-1,3-0.9h28.8c1.2,0,2,0.4,2.4,1.2C341.6,7.3,341.4,8.3,340.9,9z"/>
<path class="st1" d="M432.5,126.6V78.7h-42.3v47.8c0,2.5-1.3,3.7-4,3.7h-24.8c-2.4,0-3.5-1.2-3.5-3.7V9c0-0.9,0.3-1.9,0.8-2.6
	c0.7-0.8,1.7-1.2,2.7-1.1h25.3c0.8,0,1.6,0.2,2.4,0.6c0.8,0.4,1.2,1.4,1.2,2.9v40.1h42.2V9c0-1,0.3-1.9,0.9-2.6
	c0.7-0.8,1.7-1.2,2.8-1.1h25.3c0.8,0,1.6,0.2,2.3,0.6c0.8,0.4,1.3,1.4,1.3,3v117.7c0,2.5-1.3,3.7-4,3.7h-24.8
	C433.7,130.3,432.5,129,432.5,126.6z"/>
<path class="st1" d="M487.1,68c-0.1-8.6,1.6-17.2,5-25.2c3.3-7.6,7.9-14.6,13.7-20.5c5.9-5.9,12.8-10.6,20.5-13.8
	c16-6.7,34.1-6.7,50.1,0c15.4,6.6,27.7,18.8,34.3,34.3c3.4,8,5.1,16.5,5,25.2c0.1,8.6-1.6,17.1-5,25c-3.2,7.6-7.9,14.5-13.8,20.4
	c-5.9,5.8-12.8,10.5-20.5,13.7c-16,6.7-34.1,6.7-50.1,0c-15.4-6.5-27.7-18.7-34.1-34.1C488.7,85.1,487,76.6,487.1,68z M519.6,67.8
	c0,4.5,0.8,8.9,2.4,13.1c1.5,3.9,3.7,7.5,6.6,10.5c2.9,3,6.3,5.4,10.1,7.1c12.2,5.4,26.5,2.6,35.7-7.1c2.8-3,5.1-6.6,6.6-10.5
	c1.6-4.2,2.4-8.7,2.4-13.2c0-4.4-0.8-8.9-2.4-13c-1.5-3.9-3.7-7.5-6.6-10.6c-2.8-3.1-6.3-5.5-10.1-7.2c-8.2-3.5-17.4-3.5-25.6,0
	c-3.8,1.7-7.3,4.1-10.1,7.2c-2.8,3.1-5.1,6.7-6.6,10.6C520.3,58.9,519.5,63.4,519.6,67.8L519.6,67.8z"/>
<path class="st1" d="M707.1,126.6V35.1h-38.6v91.6c0,2.4-1.3,3.5-4,3.5h-25.5c-2.5,0-3.7-1.2-3.7-3.5V9.2c0-2.6,1.2-3.9,3.7-3.9
	h97.3c1,0,1.9,0.4,2.6,1c0.8,0.6,1.3,1.6,1.3,2.7v117.6c0,2.5-1.3,3.7-3.9,3.7h-25.6C708.4,130.3,707.1,129,707.1,126.6z"/>
<path class="st1" d="M771.1,91.9V9.5c0-1,0.3-2,0.9-2.9c0.6-0.9,1.7-1.4,2.8-1.3h95.1c1,0,2.1,0.3,3,0.8c0.9,0.6,1.3,1.6,1.3,2.7
	v117.7c0.1,1-0.3,2.1-1.1,2.8c-0.8,0.7-1.9,1-3,0.9h-24.9c-2.5,0-3.7-1.2-3.7-3.7V35.3h-37.7v56.6c0,5.4-1.1,10.7-3.2,15.6
	c-2.1,4.8-5.1,9.1-8.8,12.7c-3.9,3.7-8.4,6.6-13.4,8.6c-5.3,2.2-11.1,3.3-16.8,3.2c-2.5,0-3.7-1.4-3.7-4.2V105
	c0-2.5,1.1-3.7,3.2-3.7c2.6,0,5.1-1,7-2.8C770,96.9,771.1,94.4,771.1,91.9z"/>
<path class="st1" d="M901.3,126.6V9c0-1,0.3-1.9,0.9-2.6c0.7-0.8,1.8-1.2,2.8-1.1h24.8c1,0,1.9,0.4,2.7,1c0.8,0.6,1.3,1.6,1.3,2.7
	v45.8h8.1c1.5-7.2,4.3-14.1,8.1-20.4c7.5-12.5,19.1-22.1,32.8-27.1c15.3-5.5,32.1-5.1,47.1,1.2c15.5,6.5,27.8,18.8,34.4,34.3
	c3.4,8,5.1,16.5,5,25.2c0.1,8.6-1.6,17.1-5,25c-3.2,7.6-7.9,14.5-13.8,20.4c-5.9,5.8-12.9,10.5-20.6,13.7
	c-15.1,6.3-32.1,6.7-47.5,1.1c-13.9-5.1-25.7-15-33.2-27.8c-3.8-6.5-6.5-13.6-7.8-21h-7.8v47.1c0,2.5-1.3,3.7-4,3.7H905
	C902.5,130.2,901.3,129,901.3,126.6z M973,67.8c0,4.5,0.8,8.9,2.4,13.1c1.5,3.9,3.7,7.5,6.6,10.5c9.3,9.5,23.5,12.3,35.8,7.1
	c3.8-1.7,7.2-4.1,10.1-7.1c2.9-3,5.2-6.6,6.7-10.5c1.6-4.2,2.4-8.6,2.4-13.1c0-4.4-0.8-8.9-2.4-13c-1.5-3.9-3.8-7.5-6.7-10.6
	c-9.3-9.6-23.5-12.4-35.8-7.1c-3.8,1.7-7.3,4.1-10.1,7.2c-2.8,3.1-5.1,6.7-6.6,10.6C973.8,59,973,63.4,973,67.8z"/>
<path class="st1" d="M1166.6,95.1c1-0.8,2.1-1.3,3.4-1.5c1.1-0.1,2.2,0.5,2.7,1.5l13.8,20.2c0.9,1.2,1.2,2.2,1,2.9
	c-0.5,1-1.2,1.9-2.2,2.4c-4.8,3.4-10.1,6.2-15.7,8.2c-6.6,2.3-13.5,3.4-20.5,3.3c-8.6,0.1-17.2-1.6-25.1-5
	c-15.6-6.6-27.9-19-34.5-34.5c-3.4-7.9-5.1-16.5-5-25.1c-0.1-8.6,1.6-17.2,5-25.1c6.6-15.4,19-27.7,34.5-34.1c7.9-3.3,16.5-5,25.1-5
	c7-0.1,13.9,1.1,20.5,3.4c5.7,2.1,11.1,4.9,16.1,8.3c0.8,0.5,1.4,1.3,1.5,2.2c0.1,0.7,0,1.5-0.3,2.2l-14.7,21
	c-0.5,0.8-1.5,1.3-2.4,1.3c-1-0.1-2-0.5-2.8-1.3c-2.5-2.1-5.4-3.7-8.4-4.8c-3-1-6.2-1.5-9.4-1.4c-4.5,0-8.9,0.8-13.1,2.5
	c-7.9,3.3-14.1,9.6-17.2,17.5c-1.7,4.2-2.5,8.6-2.4,13.1c0,4.5,0.8,9,2.4,13.2c1.5,4,3.9,7.6,6.8,10.7c2.9,3,6.5,5.5,10.3,7.2
	c4.1,1.8,8.6,2.7,13.1,2.6c3.3,0.1,6.7-0.6,9.8-1.8C1161.6,98.1,1164.2,96.7,1166.6,95.1z"/>
</svg>
